<svg id="Vrstva_1" xmlns="http://www.w3.org/2000/svg" viewBox="0 0 181.718 41.423"><style>.st2{fill:#fff}</style><pattern x="213.653" y="482.625" width="69" height="69" patternUnits="userSpaceOnUse" id="Puntíkovaný_vzorek" viewBox="2.125 -70.896 69 69" overflow="visible"><path fill="none" d="M2.125-70.896h69v69h-69z"/><path fill="#f7bc60" d="M2.125-70.896h69v69h-69z"/><path class="st2" d="M61.772-71.653a.247.247 0 0 1-.026.19c-.053.101-.112.063-.165.128a.638.638 0 0 0-.079.362c-.169.058-.01.227-.015.35-.002.05-.041.105-.045.161a.764.764 0 0 0 .068.37c.097.198.268.413.435.544.19.148.365.572.608.631.177.042.384-.104.543-.143.18-.043.397.01.571-.053.222-.079.127-.337.288-.45.104-.074.287-.01.406-.051a.607.607 0 0 0 .376-.46c.016-.082.01-.145.039-.221.038-.103.111-.16.09-.293-.01-.062-.052-.12-.065-.187-.022-.114.002-.224.001-.337-.003-.2.017-.379-.078-.55-.38-.688-1.236-.929-1.975-.789-.18.034-.287.126-.442.207-.17.088-.139.166-.318.224-.081.026-.216.124-.215.224.002.115.005.051.012.169-.021.011-.022-.005-.03-.025M54.105-71.653a.247.247 0 0 1-.026.19c-.053.101-.112.063-.165.128a.638.638 0 0 0-.079.362c-.169.058-.01.227-.015.35-.002.05-.041.105-.045.161a.764.764 0 0 0 .068.37c.097.198.268.413.435.544.19.148.365.572.608.631.177.042.384-.104.543-.143.18-.043.397.01.571-.053.222-.079.127-.337.288-.45.104-.074.287-.01.406-.051a.607.607 0 0 0 .376-.46c.016-.082.01-.145.039-.221.038-.103.111-.16.09-.293-.01-.062-.052-.12-.064-.187-.022-.114.002-.224 0-.337-.003-.2.017-.379-.078-.55-.38-.688-1.236-.929-1.975-.789-.18.034-.287.126-.442.207-.17.088-.139.166-.318.224-.081.026-.216.124-.215.224.002.115.005.051.012.169-.02.011-.021-.005-.03-.025M46.439-71.653a.247.247 0 0 1-.026.19c-.053.101-.112.063-.165.128a.638.638 0 0 0-.079.362c-.169.058-.01.227-.015.35-.002.05-.041.105-.045.161a.764.764 0 0 0 .068.37c.097.198.268.413.435.544.19.148.365.572.608.631.177.042.384-.104.543-.143.18-.043.397.01.571-.053.222-.079.127-.337.288-.45.104-.074.287-.01.406-.051a.607.607 0 0 0 .376-.46c.016-.082.01-.145.039-.221.038-.103.111-.16.09-.293-.01-.062-.052-.12-.064-.187-.022-.114.002-.224 0-.337-.003-.2.017-.379-.078-.55-.38-.688-1.236-.929-1.975-.789-.18.034-.287.126-.442.207-.17.088-.139.166-.318.224-.081.026-.216.124-.215.224.002.115.005.051.012.169-.021.011-.022-.005-.03-.025M38.772-71.653a.247.247 0 0 1-.026.19c-.053.101-.112.063-.165.128a.638.638 0 0 0-.079.362c-.169.058-.01.227-.015.35-.002.05-.041.105-.045.161a.764.764 0 0 0 .068.37c.097.198.268.413.435.544.19.148.365.572.608.631.177.042.384-.104.543-.143.18-.043.397.01.571-.053.222-.079.127-.337.288-.45.104-.074.287-.01.406-.051a.607.607 0 0 0 .376-.46c.016-.082.01-.145.039-.221.038-.103.111-.16.09-.293-.01-.062-.052-.12-.064-.187-.022-.114.002-.224 0-.337-.003-.2.017-.379-.078-.55-.38-.688-1.236-.929-1.975-.789-.18.034-.287.126-.442.207-.17.088-.139.166-.318.224-.081.026-.216.124-.215.224.002.115.005.051.012.169-.021.011-.022-.005-.03-.025M31.105-71.653a.251.251 0 0 1-.026.19c-.053.101-.112.063-.165.128a.638.638 0 0 0-.079.362c-.169.058-.01.227-.015.35-.002.05-.04.105-.045.161a.764.764 0 0 0 .068.37c.097.198.268.413.435.544.19.148.365.572.608.631.177.042.384-.104.543-.143.18-.043.397.01.571-.053.222-.079.127-.337.288-.45.104-.074.287-.01.406-.051a.607.607 0 0 0 .376-.46c.016-.082.01-.145.039-.221.038-.103.111-.16.09-.293-.01-.062-.052-.12-.064-.187-.022-.114.002-.224 0-.337-.003-.2.017-.379-.078-.55-.38-.688-1.236-.929-1.975-.789-.18.034-.287.126-.442.207-.17.088-.139.166-.318.224-.081.026-.216.124-.215.224.001.115.005.051.012.169-.021.011-.021-.005-.03-.025M23.439-71.653a.251.251 0 0 1-.026.19c-.053.101-.112.063-.165.128a.638.638 0 0 0-.079.362c-.169.058-.01.227-.015.35-.002.05-.04.105-.045.161a.764.764 0 0 0 .068.37c.097.198.268.413.435.544.19.148.365.572.608.631.177.042.384-.104.543-.143.18-.043.397.01.571-.053.222-.079.127-.337.288-.45.104-.074.287-.01.406-.051a.607.607 0 0 0 .376-.46c.016-.082.01-.145.039-.221.038-.103.111-.16.09-.293-.01-.062-.052-.12-.065-.187-.022-.114.002-.224 0-.337-.003-.2.017-.379-.078-.55-.38-.688-1.236-.929-1.975-.789-.18.034-.287.126-.442.207-.17.088-.139.166-.318.224-.081.026-.216.124-.215.224.001.115.005.051.012.169-.021.011-.021-.005-.03-.025M15.773-71.653a.251.251 0 0 1-.026.19c-.053.101-.112.063-.165.128a.638.638 0 0 0-.079.362c-.169.058-.01.227-.015.35-.002.05-.04.105-.045.161a.764.764 0 0 0 .068.37c.097.198.268.413.435.544.19.148.365.572.608.631.177.042.384-.104.543-.143.18-.043.397.01.571-.053.222-.079.127-.337.288-.45.104-.074.287-.01.406-.051a.607.607 0 0 0 .376-.46c.016-.082.01-.145.039-.221.038-.103.111-.16.09-.293-.01-.062-.052-.12-.065-.187-.022-.114.002-.224 0-.337-.003-.2.017-.379-.078-.55-.38-.688-1.236-.929-1.975-.789-.18.034-.287.126-.442.207-.17.088-.139.166-.318.224-.081.026-.216.124-.215.224.002.115.005.051.012.169-.021.011-.021-.005-.03-.025M8.105-71.653a.247.247 0 0 1-.026.19c-.053.101-.112.063-.165.128a.638.638 0 0 0-.079.362c-.169.058-.01.227-.015.35-.002.05-.041.105-.045.161a.764.764 0 0 0 .068.37c.097.198.268.413.435.544.19.148.365.572.608.631.177.042.384-.104.543-.143.18-.043.397.01.571-.053.222-.079.127-.337.288-.45.105-.074.287-.01.406-.051a.607.607 0 0 0 .376-.46c.016-.082.01-.145.039-.221.038-.103.111-.16.09-.293-.01-.062-.052-.12-.064-.187-.022-.114.002-.224 0-.337-.003-.2.017-.379-.078-.55-.38-.688-1.236-.929-1.975-.789-.18.034-.287.126-.442.207-.17.088-.139.166-.318.224-.081.026-.216.124-.215.224.001.115.005.051.012.169-.021.011-.021-.005-.03-.025M.439-71.653a.242.242 0 0 1-.026.19c-.052.101-.113.063-.165.128a.63.63 0 0 0-.079.362c-.169.058-.01.227-.015.35-.002.05-.041.105-.045.161a.764.764 0 0 0 .068.37c.097.198.268.413.435.544.19.148.365.572.608.631.177.042.384-.104.543-.143.18-.043.397.01.571-.053.222-.079.127-.337.288-.45.104-.074.287-.01.406-.051.2-.07.339-.263.376-.46.016-.082.01-.145.039-.221.038-.103.111-.16.09-.293-.01-.062-.051-.12-.064-.187-.021-.114.002-.224 0-.337-.003-.2.017-.379-.078-.55-.38-.688-1.236-.929-1.975-.789-.18.034-.287.126-.442.207-.17.088-.139.166-.318.224-.081.026-.215.124-.215.224.002.115.005.051.012.169-.021.011-.021-.005-.03-.025"/><g><path class="st2" d="M69.439-71.653a.247.247 0 0 1-.026.19c-.052.101-.113.063-.165.128a.63.63 0 0 0-.079.362c-.169.058-.01.227-.015.35-.002.05-.041.105-.045.161a.764.764 0 0 0 .068.37c.097.198.268.413.435.544.19.148.365.572.608.631.177.042.384-.104.543-.143.18-.043.397.01.571-.053.222-.079.127-.337.288-.45.104-.074.287-.01.406-.051.2-.07.339-.263.376-.46.016-.082.01-.145.039-.221.038-.103.111-.16.09-.293-.01-.062-.051-.12-.064-.187-.021-.114.002-.224.001-.337-.003-.2.017-.379-.078-.55-.38-.688-1.236-.929-1.975-.789-.18.034-.287.126-.442.207-.17.088-.139.166-.318.224-.081.026-.215.124-.215.224.002.115.005.051.012.169-.021.011-.021-.005-.03-.025"/></g><path class="st2" d="M.495-71.653a.242.242 0 0 1-.026.19c-.052.101-.113.063-.165.128a.63.63 0 0 0-.079.362c-.169.058-.01.227-.015.35-.002.05-.041.105-.045.161a.764.764 0 0 0 .068.37c.097.198.268.413.435.544.19.148.365.572.608.631.177.042.384-.104.543-.143.18-.043.397.01.571-.053.222-.079.127-.337.288-.45.104-.074.287-.01.406-.051.2-.07.339-.263.376-.46.016-.082.01-.145.039-.221.038-.103.111-.16.09-.293-.01-.062-.051-.12-.064-.187-.021-.114.002-.224 0-.337-.003-.2.017-.379-.078-.55-.38-.688-1.236-.929-1.975-.789-.18.034-.287.126-.442.207-.17.088-.139.166-.318.224-.081.026-.215.124-.215.224.003.116.006.052.013.17-.021.011-.021-.005-.03-.025"/><g><path class="st2" d="M69.439-64.001a.251.251 0 0 1-.026.19c-.053.101-.112.063-.165.128a.638.638 0 0 0-.079.362c-.169.058-.01.227-.015.35-.002.05-.041.105-.045.161a.764.764 0 0 0 .068.37c.097.198.268.413.435.544.19.148.365.572.608.631.177.042.384-.104.543-.143.18-.043.397.01.571-.053.222-.079.127-.337.288-.45.104-.074.287-.01.406-.051a.607.607 0 0 0 .376-.46c.016-.082.01-.145.039-.221.039-.102.111-.16.09-.293-.01-.062-.052-.12-.064-.187-.022-.114.002-.224.001-.337-.003-.2.017-.379-.078-.55-.38-.688-1.236-.929-1.975-.789-.18.034-.287.126-.442.207-.17.088-.139.166-.318.224-.081.026-.216.124-.215.224.001.115.005.051.012.169-.021.011-.021-.005-.03-.025M61.778-64.001a.247.247 0 0 1-.026.19c-.053.101-.112.063-.165.128a.638.638 0 0 0-.079.362c-.169.058-.009.227-.015.35-.002.05-.041.105-.045.161a.764.764 0 0 0 .068.37c.097.198.268.413.435.544.19.148.365.572.608.631.177.042.384-.104.543-.143.18-.043.397.01.571-.053.222-.079.127-.337.288-.45.104-.074.287-.01.406-.051a.607.607 0 0 0 .376-.46c.016-.082.01-.145.039-.221.039-.102.111-.16.09-.293-.01-.062-.052-.12-.064-.187-.022-.114.002-.224 0-.337-.003-.2.017-.379-.078-.55-.38-.688-1.236-.929-1.975-.789-.18.034-.287.126-.442.207-.17.088-.139.166-.318.224-.081.026-.216.124-.215.224.001.115.005.051.012.169-.021.011-.021-.005-.03-.025M54.118-64.001a.247.247 0 0 1-.026.19c-.053.101-.112.063-.165.128a.638.638 0 0 0-.079.362c-.169.058-.009.227-.015.35-.002.05-.041.105-.045.161a.764.764 0 0 0 .068.37c.097.198.268.413.435.544.19.148.365.572.608.631.177.042.384-.104.543-.143.18-.043.397.01.571-.053.222-.079.127-.337.288-.45.104-.074.287-.01.406-.051a.607.607 0 0 0 .376-.46c.016-.082.01-.145.039-.221.038-.102.111-.16.09-.293-.01-.062-.052-.12-.064-.187-.022-.114.002-.224 0-.337-.003-.2.017-.379-.078-.55-.38-.688-1.236-.929-1.975-.789-.18.034-.287.126-.442.207-.17.088-.139.166-.318.224-.081.026-.216.124-.215.224.001.115.005.051.012.169-.021.011-.021-.005-.03-.025M46.458-64.001a.247.247 0 0 1-.026.19c-.053.101-.112.063-.165.128a.638.638 0 0 0-.079.362c-.169.058-.009.227-.015.35-.003.05-.041.105-.045.161a.764.764 0 0 0 .068.37c.097.198.268.413.435.544.19.148.365.572.608.631.177.042.384-.104.543-.143.18-.043.397.01.571-.053.222-.079.127-.337.288-.45.104-.074.287-.01.406-.051a.607.607 0 0 0 .376-.46c.016-.082.01-.145.039-.221.039-.102.111-.16.09-.293-.01-.062-.052-.12-.064-.187-.022-.114.002-.224 0-.337-.003-.2.017-.379-.078-.55-.38-.688-1.236-.929-1.975-.789-.18.034-.287.126-.442.207-.17.088-.139.166-.318.224-.081.026-.216.124-.215.224.001.115.005.051.012.169-.021.011-.021-.005-.03-.025M38.797-64.001a.251.251 0 0 1-.026.19c-.053.101-.112.063-.165.128a.638.638 0 0 0-.079.362c-.169.058-.009.227-.015.35-.002.05-.041.105-.045.161a.764.764 0 0 0 .068.37c.097.198.268.413.435.544.19.148.365.572.608.631.177.042.384-.104.543-.143.18-.043.397.01.571-.053.222-.079.127-.337.288-.45.104-.074.287-.01.406-.051a.607.607 0 0 0 .376-.46c.016-.082.01-.145.039-.221.039-.102.111-.16.09-.293-.01-.062-.052-.12-.065-.187-.022-.114.002-.224 0-.337-.003-.2.017-.379-.078-.55-.38-.688-1.236-.929-1.975-.789-.18.034-.287.126-.442.207-.17.088-.139.166-.318.224-.081.026-.216.124-.215.224.001.115.005.051.012.169-.021.011-.021-.005-.03-.025M31.137-64.001a.247.247 0 0 1-.026.19c-.053.101-.112.063-.165.128a.638.638 0 0 0-.079.362c-.169.058-.009.227-.015.35-.003.05-.041.105-.045.161a.764.764 0 0 0 .068.37c.097.198.268.413.435.544.19.148.365.572.608.631.177.042.384-.104.543-.143.18-.043.397.01.571-.053.222-.079.127-.337.288-.45.104-.074.287-.01.406-.051a.607.607 0 0 0 .376-.46c.016-.082.01-.145.039-.221.039-.102.111-.16.09-.293-.01-.062-.052-.12-.064-.187-.022-.114.002-.224 0-.337-.003-.2.017-.379-.078-.55-.38-.688-1.236-.929-1.975-.789-.18.034-.287.126-.442.207-.17.088-.139.166-.318.224-.081.026-.216.124-.215.224.001.115.005.051.012.169-.021.011-.021-.005-.03-.025M23.477-64.001a.251.251 0 0 1-.026.19c-.053.101-.112.063-.165.128a.638.638 0 0 0-.079.362c-.169.058-.009.227-.015.35-.002.05-.041.105-.045.161a.764.764 0 0 0 .068.37c.097.198.268.413.435.544.19.148.365.572.608.631.177.042.384-.104.543-.143.18-.043.397.01.571-.053.222-.079.127-.337.288-.45.104-.074.287-.01.406-.051a.607.607 0 0 0 .376-.46c.016-.082.01-.145.039-.221.038-.102.111-.16.09-.293-.01-.062-.052-.12-.065-.187-.022-.114.002-.224 0-.337-.003-.2.017-.379-.078-.55-.38-.688-1.236-.929-1.975-.789-.18.034-.287.126-.442.207-.17.088-.139.166-.318.224-.081.026-.216.124-.215.224.002.115.005.051.012.169-.021.011-.021-.005-.03-.025M15.816-64.001a.247.247 0 0 1-.026.19c-.053.101-.112.063-.165.128a.638.638 0 0 0-.079.362c-.169.058-.009.227-.015.35-.002.05-.041.105-.045.161a.764.764 0 0 0 .068.37c.097.198.268.413.435.544.19.148.365.572.608.631.177.042.384-.104.543-.143.18-.043.397.01.571-.053.222-.079.128-.337.288-.45.104-.074.287-.01.406-.051a.607.607 0 0 0 .376-.46c.016-.082.01-.145.039-.221.039-.102.111-.16.09-.293-.01-.062-.052-.12-.064-.187-.022-.114.002-.224 0-.337-.003-.2.017-.379-.078-.55-.38-.688-1.236-.929-1.975-.789-.18.034-.287.126-.442.207-.17.088-.139.166-.318.224-.081.026-.216.124-.215.224.002.115.005.051.012.169-.021.011-.021-.005-.03-.025M8.156-64.001a.247.247 0 0 1-.026.19c-.053.101-.112.063-.165.128a.638.638 0 0 0-.079.362c-.169.058-.009.227-.015.35-.002.05-.041.105-.045.161a.764.764 0 0 0 .068.37c.097.198.268.413.435.544.19.148.365.572.608.631.177.042.384-.104.543-.143.18-.043.397.01.571-.053.222-.079.127-.337.288-.45.104-.074.287-.01.406-.051a.607.607 0 0 0 .376-.46c.016-.082.01-.145.039-.221.038-.102.111-.16.09-.293-.01-.062-.052-.12-.064-.187-.022-.114.002-.224 0-.337-.003-.2.017-.379-.078-.55-.38-.688-1.236-.929-1.975-.789-.18.034-.287.126-.442.207-.17.088-.139.166-.318.224-.081.026-.216.124-.215.224.001.115.005.051.012.169-.021.011-.021-.005-.03-.025M.495-64.001a.247.247 0 0 1-.026.19c-.053.101-.112.063-.165.128a.638.638 0 0 0-.079.362c-.169.058-.01.227-.015.35-.002.05-.041.105-.045.161a.764.764 0 0 0 .068.37c.097.198.268.413.435.544.19.148.365.572.608.631.177.042.384-.104.543-.143.181-.042.398.011.572-.052.222-.079.127-.337.288-.45.104-.074.287-.01.406-.051a.607.607 0 0 0 .376-.46c.016-.082.01-.145.039-.221.039-.102.111-.16.09-.293-.01-.062-.052-.12-.064-.187-.022-.114.002-.224 0-.337-.003-.2.017-.379-.078-.55-.38-.688-1.236-.929-1.975-.789-.18.034-.287.126-.442.207-.17.088-.139.166-.318.224-.081.026-.216.124-.215.224.001.115.005.051.012.169-.021.011-.021-.005-.03-.025"/><g><path class="st2" d="M69.439-56.348a.251.251 0 0 1-.026.19c-.053.101-.112.063-.165.128a.638.638 0 0 0-.079.362c-.169.058-.01.227-.015.35-.002.05-.041.106-.045.161a.764.764 0 0 0 .068.37c.097.198.268.413.435.544.19.148.365.572.608.631.177.042.384-.104.543-.143.18-.043.397.01.571-.053.222-.079.127-.337.288-.45.104-.074.287-.01.406-.051a.607.607 0 0 0 .376-.46c.016-.082.01-.145.039-.221.039-.103.111-.16.09-.293-.01-.062-.052-.12-.064-.187-.022-.114.002-.224.001-.337-.003-.2.017-.379-.078-.55-.38-.688-1.236-.929-1.975-.789-.18.034-.287.126-.442.207-.17.088-.139.166-.318.224-.081.026-.216.124-.215.224.001.115.005.051.012.169-.021.011-.021-.005-.03-.025M61.778-56.348a.247.247 0 0 1-.026.19c-.053.101-.112.063-.165.128a.638.638 0 0 0-.079.362c-.169.058-.009.227-.015.35-.002.05-.041.106-.045.161a.764.764 0 0 0 .068.37c.097.198.268.413.435.544.19.148.365.572.608.631.177.042.384-.104.543-.143.18-.043.397.01.571-.053.222-.079.127-.337.288-.45.104-.074.287-.01.406-.051a.607.607 0 0 0 .376-.46c.016-.082.01-.145.039-.221.039-.103.111-.16.09-.293-.01-.062-.052-.12-.064-.187-.022-.114.002-.224 0-.337-.003-.2.017-.379-.078-.55-.38-.688-1.236-.929-1.975-.789-.18.034-.287.126-.442.207-.17.088-.139.166-.318.224-.081.026-.216.124-.215.224.001.115.005.051.012.169-.021.011-.021-.005-.03-.025M54.118-56.348a.247.247 0 0 1-.026.19c-.053.101-.112.063-.165.128a.638.638 0 0 0-.079.362c-.169.058-.009.227-.015.35-.002.05-.041.106-.045.161a.764.764 0 0 0 .068.37c.097.198.268.413.435.544.19.148.365.572.608.631.177.042.384-.104.543-.143.18-.043.397.01.571-.053.222-.079.127-.337.288-.45.104-.074.287-.01.406-.051a.607.607 0 0 0 .376-.46c.016-.082.01-.145.039-.221.038-.103.111-.16.09-.293-.01-.062-.052-.12-.064-.187-.022-.114.002-.224 0-.337-.003-.2.017-.379-.078-.55-.38-.688-1.236-.929-1.975-.789-.18.034-.287.126-.442.207-.17.088-.139.166-.318.224-.081.026-.216.124-.215.224.001.115.005.051.012.169-.021.011-.021-.005-.03-.025M46.458-56.348a.247.247 0 0 1-.026.19c-.053.101-.112.063-.165.128a.638.638 0 0 0-.079.362c-.169.058-.009.227-.015.35-.003.05-.041.106-.045.161a.764.764 0 0 0 .068.37c.097.198.268.413.435.544.19.148.365.572.608.631.177.042.384-.104.543-.143.18-.043.397.01.571-.053.222-.079.127-.337.288-.45.104-.074.287-.01.406-.051a.607.607 0 0 0 .376-.46c.016-.082.01-.145.039-.221.039-.103.111-.16.09-.293-.01-.062-.052-.12-.064-.187-.022-.114.002-.224 0-.337-.003-.2.017-.379-.078-.55-.38-.688-1.236-.929-1.975-.789-.18.034-.287.126-.442.207-.17.088-.139.166-.318.224-.081.026-.216.124-.215.224.001.115.005.051.012.169-.021.011-.021-.005-.03-.025M38.797-56.348a.251.251 0 0 1-.026.19c-.053.101-.112.063-.165.128a.638.638 0 0 0-.079.362c-.169.058-.009.227-.015.35-.002.05-.041.106-.045.161a.764.764 0 0 0 .068.37c.097.198.268.413.435.544.19.148.365.572.608.631.177.042.384-.104.543-.143.18-.043.397.01.571-.053.222-.079.127-.337.288-.45.104-.074.287-.01.406-.051a.607.607 0 0 0 .376-.46c.016-.082.01-.145.039-.221.039-.103.111-.16.09-.293-.01-.062-.052-.12-.065-.187-.022-.114.002-.224 0-.337-.003-.2.017-.379-.078-.55-.38-.688-1.236-.929-1.975-.789-.18.034-.287.126-.442.207-.17.088-.139.166-.318.224-.081.026-.216.124-.215.224.001.115.005.051.012.169-.021.011-.021-.005-.03-.025M31.137-56.348a.247.247 0 0 1-.026.19c-.053.101-.112.063-.165.128a.638.638 0 0 0-.079.362c-.169.058-.009.227-.015.35-.003.05-.041.106-.045.161a.764.764 0 0 0 .068.37c.097.198.268.413.435.544.19.148.365.572.608.631.177.042.384-.104.543-.143.18-.043.397.01.571-.053.222-.079.127-.337.288-.45.104-.074.287-.01.406-.051a.607.607 0 0 0 .376-.46c.016-.082.01-.145.039-.221.039-.103.111-.16.09-.293-.01-.062-.052-.12-.064-.187-.022-.114.002-.224 0-.337-.003-.2.017-.379-.078-.55-.38-.688-1.236-.929-1.975-.789-.18.034-.287.126-.442.207-.17.088-.139.166-.318.224-.081.026-.216.124-.215.224.001.115.005.051.012.169-.021.011-.021-.005-.03-.025M23.477-56.348a.251.251 0 0 1-.026.19c-.053.101-.112.063-.165.128a.638.638 0 0 0-.079.362c-.169.058-.009.227-.015.35-.002.05-.041.106-.045.161a.764.764 0 0 0 .068.37c.097.198.268.413.435.544.19.148.365.572.608.631.177.042.384-.104.543-.143.18-.043.397.01.571-.053.222-.079.127-.337.288-.45.104-.074.287-.01.406-.051a.607.607 0 0 0 .376-.46c.016-.082.01-.145.039-.221.038-.103.111-.16.09-.293-.01-.062-.052-.12-.065-.187-.022-.114.002-.224 0-.337-.003-.2.017-.379-.078-.55-.38-.688-1.236-.929-1.975-.789-.18.034-.287.126-.442.207-.17.088-.139.166-.318.224-.081.026-.216.124-.215.224.002.115.005.051.012.169-.021.011-.021-.005-.03-.025M15.816-56.348a.247.247 0 0 1-.026.19c-.053.101-.112.063-.165.128a.638.638 0 0 0-.079.362c-.169.058-.009.227-.015.35-.002.05-.041.106-.045.161a.764.764 0 0 0 .068.37c.097.198.268.413.435.544.19.148.365.572.608.631.177.042.384-.104.543-.143.18-.043.397.01.571-.053.222-.079.128-.337.288-.45.104-.074.287-.01.406-.051a.607.607 0 0 0 .376-.46c.016-.082.01-.145.039-.221.039-.103.111-.16.09-.293-.01-.062-.052-.12-.064-.187-.022-.114.002-.224 0-.337-.003-.2.017-.379-.078-.55-.38-.688-1.236-.929-1.975-.789-.18.034-.287.126-.442.207-.17.088-.139.166-.318.224-.081.026-.216.124-.215.224.002.115.005.051.012.169-.021.011-.021-.005-.03-.025M8.156-56.348a.247.247 0 0 1-.026.19c-.053.101-.112.063-.165.128a.638.638 0 0 0-.079.362c-.169.058-.009.227-.015.35-.002.05-.041.106-.045.161a.764.764 0 0 0 .068.37c.097.198.268.413.435.544.19.148.365.572.608.631.177.042.384-.104.543-.143.18-.043.397.01.571-.053.222-.079.127-.337.288-.45.104-.074.287-.01.406-.051a.607.607 0 0 0 .376-.46c.016-.082.01-.145.039-.221.038-.103.111-.16.09-.293-.01-.062-.052-.12-.064-.187-.022-.114.002-.224 0-.337-.003-.2.017-.379-.078-.55-.38-.688-1.236-.929-1.975-.789-.18.034-.287.126-.442.207-.17.088-.139.166-.318.224-.081.026-.216.124-.215.224.001.115.005.051.012.169-.021.011-.021-.005-.03-.025M.495-56.348a.247.247 0 0 1-.026.19c-.053.101-.112.063-.165.128a.638.638 0 0 0-.079.362c-.169.058-.01.227-.015.35-.002.05-.041.106-.045.161a.764.764 0 0 0 .068.37c.097.198.268.413.435.544.19.148.365.572.608.631.177.042.384-.104.543-.143.18-.043.397.01.571-.053.222-.079.127-.337.288-.45.104-.074.287-.01.406-.051a.607.607 0 0 0 .376-.46c.016-.082.01-.145.039-.221.039-.103.111-.16.09-.293-.01-.062-.052-.12-.064-.187-.022-.114.002-.224 0-.337-.003-.2.017-.379-.078-.55-.38-.688-1.236-.929-1.975-.789-.18.034-.287.126-.442.207-.17.088-.139.166-.318.224-.081.026-.216.124-.215.224.003.117.006.053.013.171-.021.011-.021-.005-.03-.025"/></g><g><path class="st2" d="M69.439-48.695a.251.251 0 0 1-.026.19c-.053.101-.112.063-.165.128a.638.638 0 0 0-.079.362c-.169.058-.01.226-.015.35-.002.05-.041.105-.045.161a.764.764 0 0 0 .068.37c.097.198.268.413.435.544.19.148.365.572.608.631.177.042.384-.104.543-.143.18-.043.397.01.571-.053.222-.079.127-.337.288-.45.104-.074.287-.01.406-.051a.607.607 0 0 0 .376-.46c.016-.082.01-.145.039-.221.039-.103.111-.16.09-.293-.01-.062-.052-.12-.064-.187-.022-.114.002-.224.001-.337-.003-.2.017-.379-.078-.55-.38-.688-1.236-.929-1.975-.789-.18.034-.287.126-.442.207-.17.088-.139.166-.318.224-.081.026-.216.124-.215.224.001.115.005.051.012.169-.021.011-.021-.005-.03-.025M61.778-48.695a.247.247 0 0 1-.026.19c-.053.101-.112.063-.165.128a.638.638 0 0 0-.079.362c-.169.058-.009.226-.015.35-.002.05-.041.105-.045.161a.764.764 0 0 0 .068.37c.097.198.268.413.435.544.19.148.365.572.608.631.177.042.384-.104.543-.143.18-.043.397.01.571-.053.222-.079.127-.337.288-.45.104-.074.287-.01.406-.051a.607.607 0 0 0 .376-.46c.016-.082.01-.145.039-.221.039-.103.111-.16.09-.293-.01-.062-.052-.12-.064-.187-.022-.114.002-.224 0-.337-.003-.2.017-.379-.078-.55-.38-.688-1.236-.929-1.975-.789-.18.034-.287.126-.442.207-.17.088-.139.166-.318.224-.081.026-.216.124-.215.224.001.115.005.051.012.169-.021.011-.021-.005-.03-.025M54.118-48.695a.247.247 0 0 1-.026.19c-.053.101-.112.063-.165.128a.638.638 0 0 0-.079.362c-.169.058-.009.226-.015.35-.002.05-.041.105-.045.161a.764.764 0 0 0 .068.37c.097.198.268.413.435.544.19.148.365.572.608.631.177.042.384-.104.543-.143.18-.043.397.01.571-.053.222-.079.127-.337.288-.45.104-.074.287-.01.406-.051a.607.607 0 0 0 .376-.46c.016-.082.01-.145.039-.221.038-.103.111-.16.09-.293-.01-.062-.052-.12-.064-.187-.022-.114.002-.224 0-.337-.003-.2.017-.379-.078-.55-.38-.688-1.236-.929-1.975-.789-.18.034-.287.126-.442.207-.17.088-.139.166-.318.224-.081.026-.216.124-.215.224.001.115.005.051.012.169-.021.011-.021-.005-.03-.025M46.458-48.695a.247.247 0 0 1-.026.19c-.053.101-.112.063-.165.128a.638.638 0 0 0-.079.362c-.169.058-.009.226-.015.35-.003.05-.041.105-.045.161a.764.764 0 0 0 .068.37c.097.198.268.413.435.544.19.148.365.572.608.631.177.042.384-.104.543-.143.18-.043.397.01.571-.053.222-.079.127-.337.288-.45.104-.074.287-.01.406-.051a.607.607 0 0 0 .376-.46c.016-.082.01-.145.039-.221.039-.103.111-.16.09-.293-.01-.062-.052-.12-.064-.187-.022-.114.002-.224 0-.337-.003-.2.017-.379-.078-.55-.38-.688-1.236-.929-1.975-.789-.18.034-.287.126-.442.207-.17.088-.139.166-.318.224-.081.026-.216.124-.215.224.001.115.005.051.012.169-.021.011-.021-.005-.03-.025M38.797-48.695a.251.251 0 0 1-.026.19c-.053.101-.112.063-.165.128a.638.638 0 0 0-.079.362c-.169.058-.009.226-.015.35-.002.05-.041.105-.045.161a.764.764 0 0 0 .068.37c.097.198.268.413.435.544.19.148.365.572.608.631.177.042.384-.104.543-.143.18-.043.397.01.571-.053.222-.079.127-.337.288-.45.104-.074.287-.01.406-.051a.607.607 0 0 0 .376-.46c.016-.082.01-.145.039-.221.039-.103.111-.16.09-.293-.01-.062-.052-.12-.065-.187-.022-.114.002-.224 0-.337-.003-.2.017-.379-.078-.55-.38-.688-1.236-.929-1.975-.789-.18.034-.287.126-.442.207-.17.088-.139.166-.318.224-.081.026-.216.124-.215.224.001.115.005.051.012.169-.021.011-.021-.005-.03-.025M31.137-48.695a.247.247 0 0 1-.026.19c-.053.101-.112.063-.165.128a.638.638 0 0 0-.079.362c-.169.058-.009.226-.015.35-.003.05-.041.105-.045.161a.764.764 0 0 0 .068.37c.097.198.268.413.435.544.19.148.365.572.608.631.177.042.384-.104.543-.143.18-.043.397.01.571-.053.222-.079.127-.337.288-.45.104-.074.287-.01.406-.051a.607.607 0 0 0 .376-.46c.016-.082.01-.145.039-.221.039-.103.111-.16.09-.293-.01-.062-.052-.12-.064-.187-.022-.114.002-.224 0-.337-.003-.2.017-.379-.078-.55-.38-.688-1.236-.929-1.975-.789-.18.034-.287.126-.442.207-.17.088-.139.166-.318.224-.081.026-.216.124-.215.224.001.115.005.051.012.169-.021.011-.021-.005-.03-.025M23.477-48.695a.251.251 0 0 1-.026.19c-.053.101-.112.063-.165.128a.638.638 0 0 0-.079.362c-.169.058-.009.226-.015.35-.002.05-.041.105-.045.161a.764.764 0 0 0 .068.37c.097.198.268.413.435.544.19.148.365.572.608.631.177.042.384-.104.543-.143.18-.043.397.01.571-.053.222-.079.127-.337.288-.45.104-.074.287-.01.406-.051a.607.607 0 0 0 .376-.46c.016-.082.01-.145.039-.221.038-.103.111-.16.09-.293-.01-.062-.052-.12-.065-.187-.022-.114.002-.224 0-.337-.003-.2.017-.379-.078-.55-.38-.688-1.236-.929-1.975-.789-.18.034-.287.126-.442.207-.17.088-.139.166-.318.224-.081.026-.216.124-.215.224.002.115.005.051.012.169-.021.011-.021-.005-.03-.025M15.816-48.695a.247.247 0 0 1-.026.19c-.053.101-.112.063-.165.128a.638.638 0 0 0-.079.362c-.169.058-.009.226-.015.35-.002.05-.041.105-.045.161a.764.764 0 0 0 .068.37c.097.198.268.413.435.544.19.148.365.572.608.631.177.042.384-.104.543-.143.18-.043.397.01.571-.053.222-.079.128-.337.288-.45.104-.074.287-.01.406-.051a.607.607 0 0 0 .376-.46c.016-.082.01-.145.039-.221.039-.103.111-.16.09-.293-.01-.062-.052-.12-.064-.187-.022-.114.002-.224 0-.337-.003-.2.017-.379-.078-.55-.38-.688-1.236-.929-1.975-.789-.18.034-.287.126-.442.207-.17.088-.139.166-.318.224-.081.026-.216.124-.215.224.002.115.005.051.012.169-.021.011-.021-.005-.03-.025M8.156-48.695a.247.247 0 0 1-.026.19c-.053.101-.112.063-.165.128a.638.638 0 0 0-.079.362c-.169.058-.009.226-.015.35-.002.05-.041.105-.045.161a.764.764 0 0 0 .068.37c.097.198.268.413.435.544.19.148.365.572.608.631.177.042.384-.104.543-.143.18-.043.397.01.571-.053.222-.079.127-.337.288-.45.104-.074.287-.01.406-.051a.607.607 0 0 0 .376-.46c.016-.082.01-.145.039-.221.038-.103.111-.16.09-.293-.01-.062-.052-.12-.064-.187-.022-.114.002-.224 0-.337-.003-.2.017-.379-.078-.55-.38-.688-1.236-.929-1.975-.789-.18.034-.287.126-.442.207-.17.088-.139.166-.318.224-.081.026-.216.124-.215.224.001.115.005.051.012.169-.021.011-.021-.005-.03-.025M.495-48.695a.247.247 0 0 1-.026.19c-.053.101-.112.063-.165.128a.638.638 0 0 0-.079.362c-.169.058-.01.226-.015.35-.002.05-.041.105-.045.161a.764.764 0 0 0 .068.37c.097.198.268.413.435.544.19.148.365.572.608.631.177.042.384-.104.543-.143.18-.043.397.01.571-.053.222-.079.127-.337.288-.45.104-.074.287-.01.406-.051a.607.607 0 0 0 .376-.46c.016-.082.01-.145.039-.221.039-.103.111-.16.09-.293-.01-.062-.052-.12-.064-.187-.022-.114.002-.224 0-.337-.003-.2.017-.379-.078-.55-.38-.688-1.236-.929-1.975-.789-.18.034-.287.126-.442.207-.17.088-.139.166-.318.224-.081.026-.216.124-.215.224.001.115.005.051.012.169-.021.011-.021-.005-.03-.025"/></g><g><path class="st2" d="M69.439-41.042a.251.251 0 0 1-.026.19c-.053.101-.112.063-.165.128a.638.638 0 0 0-.079.362c-.169.058-.01.227-.015.35-.002.05-.041.105-.045.161a.764.764 0 0 0 .068.37c.097.198.268.413.435.544.19.148.365.572.608.631.177.042.384-.104.543-.143.18-.043.397.01.571-.053.222-.079.127-.337.288-.45.104-.074.287-.01.406-.051a.607.607 0 0 0 .376-.46c.016-.082.01-.145.039-.221.039-.103.111-.16.09-.293-.01-.062-.052-.12-.064-.187-.022-.114.002-.224.001-.337-.003-.2.017-.379-.078-.55-.38-.688-1.236-.929-1.975-.789-.18.034-.287.126-.442.207-.17.088-.139.166-.318.224-.081.026-.216.124-.215.224.001.115.005.051.012.169-.021.011-.021-.005-.03-.025M61.778-41.042a.247.247 0 0 1-.026.19c-.053.101-.112.063-.165.128a.638.638 0 0 0-.079.362c-.169.058-.009.227-.015.35-.002.05-.041.105-.045.161a.764.764 0 0 0 .068.37c.097.198.268.413.435.544.19.148.365.572.608.631.177.042.384-.104.543-.143.18-.043.397.01.571-.053.222-.079.127-.337.288-.45.104-.074.287-.01.406-.051a.607.607 0 0 0 .376-.46c.016-.082.01-.145.039-.221.039-.103.111-.16.09-.293-.01-.062-.052-.12-.064-.187-.022-.114.002-.224 0-.337-.003-.2.017-.379-.078-.55-.38-.688-1.236-.929-1.975-.789-.18.034-.287.126-.442.207-.17.088-.139.166-.318.224-.081.026-.216.124-.215.224.001.115.005.051.012.169-.021.011-.021-.005-.03-.025M54.118-41.042a.247.247 0 0 1-.026.19c-.053.101-.112.063-.165.128a.638.638 0 0 0-.079.362c-.169.058-.009.227-.015.35-.002.05-.041.105-.045.161a.764.764 0 0 0 .068.37c.097.198.268.413.435.544.19.148.365.572.608.631.177.042.384-.104.543-.143.18-.043.397.01.571-.053.222-.079.127-.337.288-.45.104-.074.287-.01.406-.051a.607.607 0 0 0 .376-.46c.016-.082.01-.145.039-.221.038-.103.111-.16.09-.293-.01-.062-.052-.12-.064-.187-.022-.114.002-.224 0-.337-.003-.2.017-.379-.078-.55-.38-.688-1.236-.929-1.975-.789-.18.034-.287.126-.442.207-.17.088-.139.166-.318.224-.081.026-.216.124-.215.224.001.115.005.051.012.169-.021.011-.021-.005-.03-.025M46.458-41.042a.247.247 0 0 1-.026.19c-.053.101-.112.063-.165.128a.638.638 0 0 0-.079.362c-.169.058-.009.227-.015.35-.003.05-.041.105-.045.161a.764.764 0 0 0 .068.37c.097.198.268.413.435.544.19.148.365.572.608.631.177.042.384-.104.543-.143.18-.043.397.01.571-.053.222-.079.127-.337.288-.45.104-.074.287-.01.406-.051a.607.607 0 0 0 .376-.46c.016-.082.01-.145.039-.221.039-.103.111-.16.09-.293-.01-.062-.052-.12-.064-.187-.022-.114.002-.224 0-.337-.003-.2.017-.379-.078-.55-.38-.688-1.236-.929-1.975-.789-.18.034-.287.126-.442.207-.17.088-.139.166-.318.224-.081.026-.216.124-.215.224.001.115.005.051.012.169-.021.011-.021-.005-.03-.025M38.797-41.042a.251.251 0 0 1-.026.19c-.053.101-.112.063-.165.128a.638.638 0 0 0-.079.362c-.169.058-.009.227-.015.35-.002.05-.041.105-.045.161a.764.764 0 0 0 .068.37c.097.198.268.413.435.544.19.148.365.572.608.631.177.042.384-.104.543-.143.18-.043.397.01.571-.053.222-.079.127-.337.288-.45.104-.074.287-.01.406-.051a.607.607 0 0 0 .376-.46c.016-.082.01-.145.039-.221.039-.103.111-.16.09-.293-.01-.062-.052-.12-.065-.187-.022-.114.002-.224 0-.337-.003-.2.017-.379-.078-.55-.38-.688-1.236-.929-1.975-.789-.18.034-.287.126-.442.207-.17.088-.139.166-.318.224-.081.026-.216.124-.215.224.001.115.005.051.012.169-.021.011-.021-.005-.03-.025M31.137-41.042a.247.247 0 0 1-.026.19c-.053.101-.112.063-.165.128a.638.638 0 0 0-.079.362c-.169.058-.009.227-.015.35-.003.05-.041.105-.045.161a.764.764 0 0 0 .068.37c.097.198.268.413.435.544.19.148.365.572.608.631.177.042.384-.104.543-.143.18-.043.397.01.571-.053.222-.079.127-.337.288-.45.104-.074.287-.01.406-.051a.607.607 0 0 0 .376-.46c.016-.082.01-.145.039-.221.039-.103.111-.16.09-.293-.01-.062-.052-.12-.064-.187-.022-.114.002-.224 0-.337-.003-.2.017-.379-.078-.55-.38-.688-1.236-.929-1.975-.789-.18.034-.287.126-.442.207-.17.088-.139.166-.318.224-.081.026-.216.124-.215.224.001.115.005.051.012.169-.021.011-.021-.005-.03-.025M23.477-41.042a.251.251 0 0 1-.026.19c-.053.101-.112.063-.165.128a.638.638 0 0 0-.079.362c-.169.058-.009.227-.015.35-.002.05-.041.105-.045.161a.764.764 0 0 0 .068.37c.097.198.268.413.435.544.19.148.365.572.608.631.177.042.384-.104.543-.143.18-.043.397.01.571-.053.222-.079.127-.337.288-.45.104-.074.287-.01.406-.051a.607.607 0 0 0 .376-.46c.016-.082.01-.145.039-.221.038-.103.111-.16.09-.293-.01-.062-.052-.12-.065-.187-.022-.114.002-.224 0-.337-.003-.2.017-.379-.078-.55-.38-.688-1.236-.929-1.975-.789-.18.034-.287.126-.442.207-.17.088-.139.166-.318.224-.081.026-.216.124-.215.224.002.115.005.051.012.169-.021.011-.021-.005-.03-.025M15.816-41.042a.247.247 0 0 1-.026.19c-.053.101-.112.063-.165.128a.638.638 0 0 0-.079.362c-.169.058-.009.227-.015.35-.002.05-.041.105-.045.161a.764.764 0 0 0 .068.37c.097.198.268.413.435.544.19.148.365.572.608.631.177.042.384-.104.543-.143.18-.043.397.01.571-.053.222-.079.128-.337.288-.45.104-.074.287-.01.406-.051a.607.607 0 0 0 .376-.46c.016-.082.01-.145.039-.221.039-.103.111-.16.09-.293-.01-.062-.052-.12-.064-.187-.022-.114.002-.224 0-.337-.003-.2.017-.379-.078-.55-.38-.688-1.236-.929-1.975-.789-.18.034-.287.126-.442.207-.17.088-.139.166-.318.224-.081.026-.216.124-.215.224.002.115.005.051.012.169-.021.011-.021-.005-.03-.025M8.156-41.042a.247.247 0 0 1-.026.19c-.053.101-.112.063-.165.128a.638.638 0 0 0-.079.362c-.169.058-.009.227-.015.35-.002.05-.041.105-.045.161a.764.764 0 0 0 .068.37c.097.198.268.413.435.544.19.148.365.572.608.631.177.042.384-.104.543-.143.18-.043.397.01.571-.053.222-.079.127-.337.288-.45.104-.074.287-.01.406-.051a.607.607 0 0 0 .376-.46c.016-.082.01-.145.039-.221.038-.103.111-.16.09-.293-.01-.062-.052-.12-.064-.187-.022-.114.002-.224 0-.337-.003-.2.017-.379-.078-.55-.38-.688-1.236-.929-1.975-.789-.18.034-.287.126-.442.207-.17.088-.139.166-.318.224-.081.026-.216.124-.215.224.001.115.005.051.012.169-.02.012-.021-.004-.03-.024M.495-41.042a.247.247 0 0 1-.026.19c-.053.101-.112.063-.165.128a.638.638 0 0 0-.079.362c-.169.058-.01.227-.015.35-.002.05-.041.105-.045.161a.764.764 0 0 0 .068.37c.097.198.268.413.435.544.19.148.365.572.608.631.177.042.384-.104.543-.143.18-.043.397.01.571-.053.222-.079.127-.337.288-.45.104-.074.287-.01.406-.051a.607.607 0 0 0 .376-.46c.016-.082.01-.145.039-.221.039-.103.111-.16.09-.293-.01-.062-.052-.12-.064-.187-.022-.114.002-.224 0-.337-.003-.2.017-.379-.078-.55-.38-.688-1.236-.929-1.975-.789-.18.034-.287.126-.442.207-.17.088-.139.166-.318.224-.081.026-.216.124-.215.224.001.115.005.051.012.169-.021.011-.021-.005-.03-.025"/></g><g><path class="st2" d="M69.439-33.39a.251.251 0 0 1-.026.19c-.053.101-.112.063-.165.128a.638.638 0 0 0-.079.362c-.169.058-.01.227-.015.35-.002.05-.041.106-.045.161a.764.764 0 0 0 .068.37c.097.198.268.413.435.544.19.149.365.572.608.631.177.042.384-.104.543-.143.18-.043.397.01.571-.053.222-.079.127-.337.288-.45.104-.074.287-.01.406-.051a.607.607 0 0 0 .376-.46c.016-.082.01-.144.039-.221.039-.103.111-.16.09-.293-.01-.062-.052-.12-.064-.187-.022-.114.002-.224.001-.337-.003-.2.017-.379-.078-.55-.38-.688-1.236-.929-1.975-.789-.18.034-.287.126-.442.207-.17.088-.139.166-.318.224-.081.026-.216.124-.215.224.001.115.005.051.012.169-.021.011-.021-.005-.03-.025M61.778-33.39a.247.247 0 0 1-.026.19c-.053.101-.112.063-.165.128a.638.638 0 0 0-.079.362c-.169.058-.009.227-.015.35-.002.05-.041.106-.045.161a.764.764 0 0 0 .068.37c.097.198.268.413.435.544.19.149.365.572.608.631.177.042.384-.104.543-.143.18-.043.397.01.571-.053.222-.079.127-.337.288-.45.104-.074.287-.01.406-.051a.607.607 0 0 0 .376-.46c.016-.082.01-.144.039-.221.039-.103.111-.16.09-.293-.01-.062-.052-.12-.064-.187-.022-.114.002-.224 0-.337-.003-.2.017-.379-.078-.55-.38-.688-1.236-.929-1.975-.789-.18.034-.287.126-.442.207-.17.088-.139.166-.318.224-.081.026-.216.124-.215.224.001.115.005.051.012.169-.021.011-.021-.005-.03-.025M54.118-33.39a.247.247 0 0 1-.026.19c-.053.101-.112.063-.165.128a.638.638 0 0 0-.079.362c-.169.058-.009.227-.015.35-.002.05-.041.106-.045.161a.764.764 0 0 0 .068.37c.097.198.268.413.435.544.19.149.365.572.608.631.177.042.384-.104.543-.143.18-.043.397.01.571-.053.222-.079.127-.337.288-.45.104-.074.287-.01.406-.051a.607.607 0 0 0 .376-.46c.016-.082.01-.144.039-.221.038-.103.111-.16.09-.293-.01-.062-.052-.12-.064-.187-.022-.114.002-.224 0-.337-.003-.2.017-.379-.078-.55-.38-.688-1.236-.929-1.975-.789-.18.034-.287.126-.442.207-.17.088-.139.166-.318.224-.081.026-.216.124-.215.224.001.115.005.051.012.169-.021.011-.021-.005-.03-.025M46.458-33.39a.247.247 0 0 1-.026.19c-.053.101-.112.063-.165.128a.638.638 0 0 0-.079.362c-.169.058-.009.227-.015.35-.003.05-.041.106-.045.161a.764.764 0 0 0 .068.37c.097.198.268.413.435.544.19.149.365.572.608.631.177.042.384-.104.543-.143.18-.043.397.01.571-.053.222-.079.127-.337.288-.45.104-.074.287-.01.406-.051a.607.607 0 0 0 .376-.46c.016-.082.01-.144.039-.221.039-.103.111-.16.09-.293-.01-.062-.052-.12-.064-.187-.022-.114.002-.224 0-.337-.003-.2.017-.379-.078-.55-.38-.688-1.236-.929-1.975-.789-.18.034-.287.126-.442.207-.17.088-.139.166-.318.224-.081.026-.216.124-.215.224.001.115.005.051.012.169-.021.011-.021-.005-.03-.025M38.797-33.39a.251.251 0 0 1-.026.19c-.053.101-.112.063-.165.128a.638.638 0 0 0-.079.362c-.169.058-.009.227-.015.35-.002.05-.041.106-.045.161a.764.764 0 0 0 .068.37c.097.198.268.413.435.544.19.149.365.572.608.631.177.042.384-.104.543-.143.18-.043.397.01.571-.053.222-.079.127-.337.288-.45.104-.074.287-.01.406-.051a.607.607 0 0 0 .376-.46c.016-.082.01-.144.039-.221.039-.103.111-.16.09-.293-.01-.062-.052-.12-.065-.187-.022-.114.002-.224 0-.337-.003-.2.017-.379-.078-.55-.38-.688-1.236-.929-1.975-.789-.18.034-.287.126-.442.207-.17.088-.139.166-.318.224-.081.026-.216.124-.215.224.001.115.005.051.012.169-.021.011-.021-.005-.03-.025M31.137-33.39a.247.247 0 0 1-.026.19c-.053.101-.112.063-.165.128a.638.638 0 0 0-.079.362c-.169.058-.009.227-.015.35-.003.05-.041.106-.045.161a.764.764 0 0 0 .068.37c.097.198.268.413.435.544.19.149.365.572.608.631.177.042.384-.104.543-.143.18-.043.397.01.571-.053.222-.079.127-.337.288-.45.104-.074.287-.01.406-.051a.607.607 0 0 0 .376-.46c.016-.082.01-.144.039-.221.039-.103.111-.16.09-.293-.01-.062-.052-.12-.064-.187-.022-.114.002-.224 0-.337-.003-.2.017-.379-.078-.55-.38-.688-1.236-.929-1.975-.789-.18.034-.287.126-.442.207-.17.088-.139.166-.318.224-.081.026-.216.124-.215.224.001.115.005.051.012.169-.021.011-.021-.005-.03-.025M23.477-33.39a.251.251 0 0 1-.026.19c-.053.101-.112.063-.165.128a.638.638 0 0 0-.079.362c-.169.058-.009.227-.015.35-.002.05-.041.106-.045.161a.764.764 0 0 0 .068.37c.097.198.268.413.435.544.19.149.365.572.608.631.177.042.384-.104.543-.143.18-.043.397.01.571-.053.222-.079.127-.337.288-.45.104-.074.287-.01.406-.051a.607.607 0 0 0 .376-.46c.016-.082.01-.144.039-.221.038-.103.111-.16.09-.293-.01-.062-.052-.12-.065-.187-.022-.114.002-.224 0-.337-.003-.2.017-.379-.078-.55-.38-.688-1.236-.929-1.975-.789-.18.034-.287.126-.442.207-.17.088-.139.166-.318.224-.081.026-.216.124-.215.224.002.115.005.051.012.169-.021.011-.021-.005-.03-.025M15.816-33.39a.247.247 0 0 1-.026.19c-.053.101-.112.063-.165.128a.638.638 0 0 0-.079.362c-.169.058-.009.227-.015.35-.002.05-.041.106-.045.161a.764.764 0 0 0 .068.37c.097.198.268.413.435.544.19.149.365.572.608.631.177.042.384-.104.543-.143.18-.043.397.01.571-.053.222-.079.128-.337.288-.45.104-.074.287-.01.406-.051a.607.607 0 0 0 .376-.46c.016-.082.01-.144.039-.221.039-.103.111-.16.09-.293-.01-.062-.052-.12-.064-.187-.022-.114.002-.224 0-.337-.003-.2.017-.379-.078-.55-.38-.688-1.236-.929-1.975-.789-.18.034-.287.126-.442.207-.17.088-.139.166-.318.224-.081.026-.216.124-.215.224.002.115.005.051.012.169-.021.011-.021-.005-.03-.025M8.156-33.39a.247.247 0 0 1-.026.19c-.053.101-.112.063-.165.128a.638.638 0 0 0-.079.362c-.169.058-.009.227-.015.35-.002.05-.041.106-.045.161a.764.764 0 0 0 .068.37c.097.198.268.413.435.544.19.149.365.572.608.631.177.042.384-.104.543-.143.18-.043.397.01.571-.053.222-.079.127-.337.288-.45.104-.074.287-.01.406-.051a.607.607 0 0 0 .376-.46c.016-.082.01-.144.039-.221.038-.103.111-.16.09-.293-.01-.062-.052-.12-.064-.187-.022-.114.002-.224 0-.337-.003-.2.017-.379-.078-.55-.38-.688-1.236-.929-1.975-.789-.18.034-.287.126-.442.207-.17.088-.139.166-.318.224-.081.026-.216.124-.215.224.001.115.005.051.012.169-.021.011-.021-.005-.03-.025M.495-33.39a.247.247 0 0 1-.026.19c-.053.101-.112.063-.165.128a.638.638 0 0 0-.079.362c-.169.058-.01.227-.015.35-.002.05-.041.106-.045.161a.764.764 0 0 0 .068.37c.097.198.268.413.435.544.19.149.365.572.608.631.177.042.384-.104.543-.143.18-.043.397.01.571-.053.222-.079.127-.337.288-.45.104-.074.287-.01.406-.051a.607.607 0 0 0 .376-.46c.016-.082.01-.144.039-.221.039-.103.111-.16.09-.293-.01-.062-.052-.12-.064-.187-.022-.114.002-.224 0-.337-.003-.2.017-.379-.078-.55-.38-.688-1.236-.929-1.975-.789-.18.034-.287.126-.442.207-.17.088-.139.166-.318.224-.081.026-.216.124-.215.224.003.117.006.053.013.171-.021.011-.021-.005-.03-.025"/></g><g><path class="st2" d="M69.439-25.736a.251.251 0 0 1-.026.19c-.053.101-.112.063-.165.128a.638.638 0 0 0-.079.362c-.169.058-.01.227-.015.35-.002.05-.041.106-.045.161a.764.764 0 0 0 .068.37c.097.198.268.413.435.544.19.148.365.572.608.631.177.042.384-.104.543-.143.18-.043.397.01.571-.053.222-.079.127-.337.288-.45.104-.074.287-.01.406-.051a.607.607 0 0 0 .376-.46c.016-.082.01-.145.039-.221.039-.102.111-.16.09-.293-.01-.061-.052-.12-.064-.186-.022-.114.002-.224.001-.337-.003-.2.017-.379-.078-.55-.38-.688-1.236-.929-1.975-.789-.18.034-.287.126-.442.207-.17.088-.139.166-.318.224-.081.026-.216.124-.215.224.001.115.005.051.012.169-.021.011-.021-.005-.03-.025M61.778-25.736a.247.247 0 0 1-.026.19c-.053.101-.112.063-.165.128a.638.638 0 0 0-.079.362c-.169.058-.009.227-.015.35-.002.05-.041.106-.045.161a.764.764 0 0 0 .068.37c.097.198.268.413.435.544.19.148.365.572.608.631.177.042.384-.104.543-.143.18-.043.397.01.571-.053.222-.079.127-.337.288-.45.104-.074.287-.01.406-.051a.607.607 0 0 0 .376-.46c.016-.082.01-.145.039-.221.039-.102.111-.16.09-.293-.01-.061-.052-.12-.064-.186-.022-.114.002-.224 0-.337-.003-.2.017-.379-.078-.55-.38-.688-1.236-.929-1.975-.789-.18.034-.287.126-.442.207-.17.088-.139.166-.318.224-.081.026-.216.124-.215.224.001.115.005.051.012.169-.021.011-.021-.005-.03-.025M54.118-25.736a.247.247 0 0 1-.026.19c-.053.101-.112.063-.165.128a.638.638 0 0 0-.079.362c-.169.058-.009.227-.015.35-.002.05-.041.106-.045.161a.764.764 0 0 0 .068.37c.097.198.268.413.435.544.19.148.365.572.608.631.177.042.384-.104.543-.143.18-.043.397.01.571-.053.222-.079.127-.337.288-.45.104-.074.287-.01.406-.051a.607.607 0 0 0 .376-.46c.016-.082.01-.145.039-.221.038-.102.111-.16.09-.293-.01-.061-.052-.12-.064-.186-.022-.114.002-.224 0-.337-.003-.2.017-.379-.078-.55-.38-.688-1.236-.929-1.975-.789-.18.034-.287.126-.442.207-.17.088-.139.166-.318.224-.081.026-.216.124-.215.224.001.115.005.051.012.169-.021.011-.021-.005-.03-.025M46.458-25.736a.247.247 0 0 1-.026.19c-.053.101-.112.063-.165.128a.638.638 0 0 0-.079.362c-.169.058-.009.227-.015.35-.003.05-.041.106-.045.161a.764.764 0 0 0 .068.37c.097.198.268.413.435.544.19.148.365.572.608.631.177.042.384-.104.543-.143.18-.043.397.01.571-.053.222-.079.127-.337.288-.45.104-.074.287-.01.406-.051a.607.607 0 0 0 .376-.46c.016-.082.01-.145.039-.221.039-.102.111-.16.09-.293-.01-.061-.052-.12-.064-.186-.022-.114.002-.224 0-.337-.003-.2.017-.379-.078-.55-.38-.688-1.236-.929-1.975-.789-.18.034-.287.126-.442.207-.17.088-.139.166-.318.224-.081.026-.216.124-.215.224.001.115.005.051.012.169-.021.011-.021-.005-.03-.025M38.797-25.736a.251.251 0 0 1-.026.19c-.053.101-.112.063-.165.128a.638.638 0 0 0-.079.362c-.169.058-.009.227-.015.35-.002.05-.041.106-.045.161a.764.764 0 0 0 .068.37c.097.198.268.413.435.544.19.148.365.572.608.631.177.042.384-.104.543-.143.18-.043.397.01.571-.053.222-.079.127-.337.288-.45.104-.074.287-.01.406-.051a.607.607 0 0 0 .376-.46c.016-.082.01-.145.039-.221.039-.102.111-.16.09-.293-.01-.061-.052-.12-.065-.186-.022-.114.002-.224 0-.337-.003-.2.017-.379-.078-.55-.38-.688-1.236-.929-1.975-.789-.18.034-.287.126-.442.207-.17.088-.139.166-.318.224-.081.026-.216.124-.215.224.001.115.005.051.012.169-.021.011-.021-.005-.03-.025M31.137-25.736a.247.247 0 0 1-.026.19c-.053.101-.112.063-.165.128a.638.638 0 0 0-.079.362c-.169.058-.009.227-.015.35-.003.05-.041.106-.045.161a.764.764 0 0 0 .068.37c.097.198.268.413.435.544.19.148.365.572.608.631.177.042.384-.104.543-.143.18-.043.397.01.571-.053.222-.079.127-.337.288-.45.104-.074.287-.01.406-.051a.607.607 0 0 0 .376-.46c.016-.082.01-.145.039-.221.039-.102.111-.16.09-.293-.01-.061-.052-.12-.064-.186-.022-.114.002-.224 0-.337-.003-.2.017-.379-.078-.55-.38-.688-1.236-.929-1.975-.789-.18.034-.287.126-.442.207-.17.088-.139.166-.318.224-.081.026-.216.124-.215.224.001.115.005.051.012.169-.021.011-.021-.005-.03-.025M23.477-25.736a.251.251 0 0 1-.026.19c-.053.101-.112.063-.165.128a.638.638 0 0 0-.079.362c-.169.058-.009.227-.015.35-.002.05-.041.106-.045.161a.764.764 0 0 0 .068.37c.097.198.268.413.435.544.19.148.365.572.608.631.177.042.384-.104.543-.143.18-.043.397.01.571-.053.222-.079.127-.337.288-.45.104-.074.287-.01.406-.051a.607.607 0 0 0 .376-.46c.016-.082.01-.145.039-.221.038-.102.111-.16.09-.293-.01-.061-.052-.12-.065-.186-.022-.114.002-.224 0-.337-.003-.2.017-.379-.078-.55-.38-.688-1.236-.929-1.975-.789-.18.034-.287.126-.442.207-.17.088-.139.166-.318.224-.081.026-.216.124-.215.224.002.115.005.051.012.169-.021.011-.021-.005-.03-.025M15.816-25.736a.247.247 0 0 1-.026.19c-.053.101-.112.063-.165.128a.638.638 0 0 0-.079.362c-.169.058-.009.227-.015.35-.002.05-.041.106-.045.161a.764.764 0 0 0 .068.37c.097.198.268.413.435.544.19.148.365.572.608.631.177.042.384-.104.543-.143.18-.043.397.01.571-.053.222-.079.128-.337.288-.45.104-.074.287-.01.406-.051a.607.607 0 0 0 .376-.46c.016-.082.01-.145.039-.221.039-.102.111-.16.09-.293-.01-.061-.052-.12-.064-.186-.022-.114.002-.224 0-.337-.003-.2.017-.379-.078-.55-.38-.688-1.236-.929-1.975-.789-.18.034-.287.126-.442.207-.17.088-.139.166-.318.224-.081.026-.216.124-.215.224.002.115.005.051.012.169-.021.011-.021-.005-.03-.025M8.156-25.736a.247.247 0 0 1-.026.19c-.053.101-.112.063-.165.128a.638.638 0 0 0-.079.362c-.169.058-.009.227-.015.35-.002.05-.041.106-.045.161a.764.764 0 0 0 .068.37c.097.198.268.413.435.544.19.148.365.572.608.631.177.042.384-.104.543-.143.18-.043.397.01.571-.053.222-.079.127-.337.288-.45.104-.074.287-.01.406-.051a.607.607 0 0 0 .376-.46c.016-.082.01-.145.039-.221.038-.102.111-.16.09-.293-.01-.061-.052-.12-.064-.186-.022-.114.002-.224 0-.337-.003-.2.017-.379-.078-.55-.38-.688-1.236-.929-1.975-.789-.18.034-.287.126-.442.207-.17.088-.139.166-.318.224-.081.026-.216.124-.215.224.001.115.005.051.012.169-.021.011-.021-.005-.03-.025M.495-25.736a.247.247 0 0 1-.026.19c-.053.101-.112.063-.165.128a.638.638 0 0 0-.079.362c-.169.058-.01.227-.015.35-.002.05-.041.106-.045.161a.764.764 0 0 0 .068.37c.097.198.268.413.435.544.19.148.365.572.608.631.177.042.384-.104.543-.143.18-.043.397.01.571-.053.222-.079.127-.337.288-.45.104-.074.287-.01.406-.051a.607.607 0 0 0 .376-.46c.016-.082.01-.145.039-.221.039-.102.111-.16.09-.293-.01-.061-.052-.12-.064-.186-.022-.114.002-.224 0-.337-.003-.2.017-.379-.078-.55-.38-.688-1.236-.929-1.975-.789-.18.034-.287.126-.442.207-.17.088-.139.166-.318.224-.081.026-.216.124-.215.224.001.115.005.051.012.169-.021.011-.021-.005-.03-.025"/></g><g><path class="st2" d="M69.439-18.084a.251.251 0 0 1-.026.19c-.053.101-.112.063-.165.128a.638.638 0 0 0-.079.362c-.169.058-.01.226-.015.35-.002.05-.041.105-.045.161a.764.764 0 0 0 .068.37c.097.198.268.413.435.544.19.148.365.572.608.631.177.042.384-.104.543-.142.18-.043.397.01.571-.053.222-.079.127-.337.288-.45.104-.074.287-.01.406-.051a.607.607 0 0 0 .376-.46c.016-.082.01-.144.039-.221.039-.103.111-.16.09-.293-.01-.062-.052-.12-.064-.187-.022-.114.002-.224.001-.337-.003-.2.017-.379-.078-.55-.38-.688-1.236-.929-1.975-.789-.18.034-.287.126-.442.207-.17.088-.139.166-.318.224-.081.026-.216.124-.215.224.001.115.005.051.012.169-.021.011-.021-.005-.03-.025M61.778-18.084a.247.247 0 0 1-.026.19c-.053.101-.112.063-.165.128a.638.638 0 0 0-.079.362c-.169.058-.009.226-.015.35-.002.05-.041.105-.045.161a.764.764 0 0 0 .068.37c.097.198.268.413.435.544.19.148.365.572.608.631.177.042.384-.104.543-.142.18-.043.397.01.571-.053.222-.079.127-.337.288-.45.104-.074.287-.01.406-.051a.607.607 0 0 0 .376-.46c.016-.082.01-.144.039-.221.039-.103.111-.16.09-.293-.01-.062-.052-.12-.064-.187-.022-.114.002-.224 0-.337-.003-.2.017-.379-.078-.55-.38-.688-1.236-.929-1.975-.789-.18.034-.287.126-.442.207-.17.088-.139.166-.318.224-.081.026-.216.124-.215.224.001.115.005.051.012.169-.021.011-.021-.005-.03-.025M54.118-18.084a.247.247 0 0 1-.026.19c-.053.101-.112.063-.165.128a.638.638 0 0 0-.079.362c-.169.058-.009.226-.015.35-.002.05-.041.105-.045.161a.764.764 0 0 0 .068.37c.097.198.268.413.435.544.19.148.365.572.608.631.177.042.384-.104.543-.142.18-.043.397.01.571-.053.222-.079.127-.337.288-.45.104-.074.287-.01.406-.051a.607.607 0 0 0 .376-.46c.016-.082.01-.144.039-.221.038-.103.111-.16.09-.293-.01-.062-.052-.12-.064-.187-.022-.114.002-.224 0-.337-.003-.2.017-.379-.078-.55-.38-.688-1.236-.929-1.975-.789-.18.034-.287.126-.442.207-.17.088-.139.166-.318.224-.081.026-.216.124-.215.224.001.115.005.051.012.169-.021.011-.021-.005-.03-.025M46.458-18.084a.247.247 0 0 1-.026.19c-.053.101-.112.063-.165.128a.638.638 0 0 0-.079.362c-.169.058-.009.226-.015.35-.003.05-.041.105-.045.161a.764.764 0 0 0 .068.37c.097.198.268.413.435.544.19.148.365.572.608.631.177.042.384-.104.543-.142.18-.043.397.01.571-.053.222-.079.127-.337.288-.45.104-.074.287-.01.406-.051a.607.607 0 0 0 .376-.46c.016-.082.01-.144.039-.221.039-.103.111-.16.09-.293-.01-.062-.052-.12-.064-.187-.022-.114.002-.224 0-.337-.003-.2.017-.379-.078-.55-.38-.688-1.236-.929-1.975-.789-.18.034-.287.126-.442.207-.17.088-.139.166-.318.224-.081.026-.216.124-.215.224.001.115.005.051.012.169-.021.011-.021-.005-.03-.025M38.797-18.084a.251.251 0 0 1-.026.19c-.053.101-.112.063-.165.128a.638.638 0 0 0-.079.362c-.169.058-.009.226-.015.35-.002.05-.041.105-.045.161a.764.764 0 0 0 .068.37c.097.198.268.413.435.544.19.148.365.572.608.631.177.042.384-.104.543-.142.18-.043.397.01.571-.053.222-.079.127-.337.288-.45.104-.074.287-.01.406-.051a.607.607 0 0 0 .376-.46c.016-.082.01-.144.039-.221.039-.103.111-.16.09-.293-.01-.062-.052-.12-.065-.187-.022-.114.002-.224 0-.337-.003-.2.017-.379-.078-.55-.38-.688-1.236-.929-1.975-.789-.18.034-.287.126-.442.207-.17.088-.139.166-.318.224-.081.026-.216.124-.215.224.001.115.005.051.012.169-.021.011-.021-.005-.03-.025M31.137-18.084a.247.247 0 0 1-.026.19c-.053.101-.112.063-.165.128a.638.638 0 0 0-.079.362c-.169.058-.009.226-.015.35-.003.05-.041.105-.045.161a.764.764 0 0 0 .068.37c.097.198.268.413.435.544.19.148.365.572.608.631.177.042.384-.104.543-.142.18-.043.397.01.571-.053.222-.079.127-.337.288-.45.104-.074.287-.01.406-.051a.607.607 0 0 0 .376-.46c.016-.082.01-.144.039-.221.039-.103.111-.16.09-.293-.01-.062-.052-.12-.064-.187-.022-.114.002-.224 0-.337-.003-.2.017-.379-.078-.55-.38-.688-1.236-.929-1.975-.789-.18.034-.287.126-.442.207-.17.088-.139.166-.318.224-.081.026-.216.124-.215.224.001.115.005.051.012.169-.021.011-.021-.005-.03-.025M23.477-18.084a.251.251 0 0 1-.026.19c-.053.101-.112.063-.165.128a.638.638 0 0 0-.079.362c-.169.058-.009.226-.015.35-.002.05-.041.105-.045.161a.764.764 0 0 0 .068.37c.097.198.268.413.435.544.19.148.365.572.608.631.177.042.384-.104.543-.142.18-.043.397.01.571-.053.222-.079.127-.337.288-.45.104-.074.287-.01.406-.051a.607.607 0 0 0 .376-.46c.016-.082.01-.144.039-.221.038-.103.111-.16.09-.293-.01-.062-.052-.12-.065-.187-.022-.114.002-.224 0-.337-.003-.2.017-.379-.078-.55-.38-.688-1.236-.929-1.975-.789-.18.034-.287.126-.442.207-.17.088-.139.166-.318.224-.081.026-.216.124-.215.224.002.115.005.051.012.169-.021.011-.021-.005-.03-.025M15.816-18.084a.247.247 0 0 1-.026.19c-.053.101-.112.063-.165.128a.638.638 0 0 0-.079.362c-.169.058-.009.226-.015.35-.002.05-.041.105-.045.161a.764.764 0 0 0 .068.37c.097.198.268.413.435.544.19.148.365.572.608.631.177.042.384-.104.543-.142.18-.043.397.01.571-.053.222-.079.128-.337.288-.45.104-.074.287-.01.406-.051a.607.607 0 0 0 .376-.46c.016-.082.01-.144.039-.221.039-.103.111-.16.09-.293-.01-.062-.052-.12-.064-.187-.022-.114.002-.224 0-.337-.003-.2.017-.379-.078-.55-.38-.688-1.236-.929-1.975-.789-.18.034-.287.126-.442.207-.17.088-.139.166-.318.224-.081.026-.216.124-.215.224.002.115.005.051.012.169-.021.011-.021-.005-.03-.025M8.156-18.084a.247.247 0 0 1-.026.19c-.053.101-.112.063-.165.128a.638.638 0 0 0-.079.362c-.169.058-.009.226-.015.35-.002.05-.041.105-.045.161a.764.764 0 0 0 .068.37c.097.198.268.413.435.544.19.148.365.572.608.631.177.042.384-.104.543-.142.18-.043.397.01.571-.053.222-.079.127-.337.288-.45.104-.074.287-.01.406-.051a.607.607 0 0 0 .376-.46c.016-.082.01-.144.039-.221.038-.103.111-.16.09-.293-.01-.062-.052-.12-.064-.187-.022-.114.002-.224 0-.337-.003-.2.017-.379-.078-.55-.38-.688-1.236-.929-1.975-.789-.18.034-.287.126-.442.207-.17.088-.139.166-.318.224-.081.026-.216.124-.215.224.001.115.005.051.012.169-.021.011-.021-.005-.03-.025M.495-18.084a.247.247 0 0 1-.026.19c-.053.101-.112.063-.165.128a.638.638 0 0 0-.079.362c-.169.058-.01.226-.015.35-.002.05-.041.105-.045.161a.764.764 0 0 0 .068.37c.097.198.268.413.435.544.19.148.365.572.608.631.177.042.384-.104.543-.142.18-.043.397.01.571-.053.222-.079.127-.337.288-.45.104-.074.287-.01.406-.051a.607.607 0 0 0 .376-.46c.016-.082.01-.144.039-.221.039-.103.111-.16.09-.293-.01-.062-.052-.12-.064-.187-.022-.114.002-.224 0-.337-.003-.2.017-.379-.078-.55-.38-.688-1.236-.929-1.975-.789-.18.034-.287.126-.442.207-.17.088-.139.166-.318.224-.081.026-.216.124-.215.224.003.116.006.051.013.169-.021.011-.021-.005-.03-.025"/></g><g><path class="st2" d="M69.439-10.431a.254.254 0 0 1-.026.191c-.053.101-.112.063-.165.128a.638.638 0 0 0-.079.362c-.169.058-.01.227-.015.35-.002.05-.041.105-.045.161a.764.764 0 0 0 .068.37c.097.198.268.413.435.544.19.148.365.572.608.631.177.042.384-.104.543-.143.18-.043.397.01.571-.053.222-.079.127-.337.288-.45.104-.074.287-.01.406-.051a.607.607 0 0 0 .376-.46c.016-.082.01-.145.039-.221.039-.103.111-.16.09-.293-.01-.062-.052-.12-.064-.187-.022-.114.002-.224.001-.337-.003-.2.017-.379-.078-.55-.38-.688-1.236-.929-1.975-.789-.18.034-.287.126-.442.207-.17.088-.139.166-.318.224-.081.026-.216.124-.215.224.001.115.005.051.012.169-.021.011-.021-.005-.03-.025M61.778-10.431a.25.25 0 0 1-.026.191c-.053.101-.112.063-.165.128a.638.638 0 0 0-.079.362c-.169.058-.009.227-.015.35-.002.05-.041.105-.045.161a.764.764 0 0 0 .068.37c.097.198.268.413.435.544.19.148.365.572.608.631.177.042.384-.104.543-.143.18-.043.397.01.571-.053.222-.079.127-.337.288-.45.104-.074.287-.01.406-.051a.607.607 0 0 0 .376-.46c.016-.082.01-.145.039-.221.039-.103.111-.16.09-.293-.01-.062-.052-.12-.064-.187-.022-.114.002-.224 0-.337-.003-.2.017-.379-.078-.55-.38-.688-1.236-.929-1.975-.789-.18.034-.287.126-.442.207-.17.088-.139.166-.318.224-.081.026-.216.124-.215.224.001.115.005.051.012.169-.021.011-.021-.005-.03-.025M54.118-10.431a.25.25 0 0 1-.026.191c-.053.101-.112.063-.165.128a.638.638 0 0 0-.079.362c-.169.058-.009.227-.015.35-.002.05-.041.105-.045.161a.764.764 0 0 0 .068.37c.097.198.268.413.435.544.19.148.365.572.608.631.177.042.384-.104.543-.143.18-.043.397.01.571-.053.222-.079.127-.337.288-.45.104-.074.287-.01.406-.051a.607.607 0 0 0 .376-.46c.016-.082.01-.145.039-.221.038-.103.111-.16.09-.293-.01-.062-.052-.12-.064-.187-.022-.114.002-.224 0-.337-.003-.2.017-.379-.078-.55-.38-.688-1.236-.929-1.975-.789-.18.034-.287.126-.442.207-.17.088-.139.166-.318.224-.081.026-.216.124-.215.224.001.115.005.051.012.169-.021.011-.021-.005-.03-.025M46.458-10.431a.25.25 0 0 1-.026.191c-.053.101-.112.063-.165.128a.638.638 0 0 0-.079.362c-.169.058-.009.227-.015.35-.003.05-.041.105-.045.161a.764.764 0 0 0 .068.37c.097.198.268.413.435.544.19.148.365.572.608.631.177.042.384-.104.543-.143.18-.043.397.01.571-.053.222-.079.127-.337.288-.45.104-.074.287-.01.406-.051a.607.607 0 0 0 .376-.46c.016-.082.01-.145.039-.221.039-.103.111-.16.09-.293-.01-.062-.052-.12-.064-.187-.022-.114.002-.224 0-.337-.003-.2.017-.379-.078-.55-.38-.688-1.236-.929-1.975-.789-.18.034-.287.126-.442.207-.17.088-.139.166-.318.224-.081.026-.216.124-.215.224.001.115.005.051.012.169-.021.011-.021-.005-.03-.025M38.797-10.431a.254.254 0 0 1-.026.191c-.053.101-.112.063-.165.128a.638.638 0 0 0-.079.362c-.169.058-.009.227-.015.35-.002.05-.041.105-.045.161a.764.764 0 0 0 .068.37c.097.198.268.413.435.544.19.148.365.572.608.631.177.042.384-.104.543-.143.18-.043.397.01.571-.053.222-.079.127-.337.288-.45.104-.074.287-.01.406-.051a.607.607 0 0 0 .376-.46c.016-.082.01-.145.039-.221.039-.103.111-.16.09-.293-.01-.062-.052-.12-.065-.187-.022-.114.002-.224 0-.337-.003-.2.017-.379-.078-.55-.38-.688-1.236-.929-1.975-.789-.18.034-.287.126-.442.207-.17.088-.139.166-.318.224-.081.026-.216.124-.215.224.001.115.005.051.012.169-.021.011-.021-.005-.03-.025M31.137-10.431a.25.25 0 0 1-.026.191c-.053.101-.112.063-.165.128a.638.638 0 0 0-.079.362c-.169.058-.009.227-.015.35-.003.05-.041.105-.045.161a.764.764 0 0 0 .068.37c.097.198.268.413.435.544.19.148.365.572.608.631.177.042.384-.104.543-.143.18-.043.397.01.571-.053.222-.079.127-.337.288-.45.104-.074.287-.01.406-.051a.607.607 0 0 0 .376-.46c.016-.082.01-.145.039-.221.039-.103.111-.16.09-.293-.01-.062-.052-.12-.064-.187-.022-.114.002-.224 0-.337-.003-.2.017-.379-.078-.55-.38-.688-1.236-.929-1.975-.789-.18.034-.287.126-.442.207-.17.088-.139.166-.318.224-.081.026-.216.124-.215.224.001.115.005.051.012.169-.021.011-.021-.005-.03-.025M23.477-10.431a.254.254 0 0 1-.026.191c-.053.101-.112.063-.165.128a.638.638 0 0 0-.079.362c-.169.058-.009.227-.015.35-.002.05-.041.105-.045.161a.764.764 0 0 0 .068.37c.097.198.268.413.435.544.19.148.365.572.608.631.177.042.384-.104.543-.143.18-.043.397.01.571-.053.222-.079.127-.337.288-.45.104-.074.287-.01.406-.051a.607.607 0 0 0 .376-.46c.016-.082.01-.145.039-.221.038-.103.111-.16.09-.293-.01-.062-.052-.12-.065-.187-.022-.114.002-.224 0-.337-.003-.2.017-.379-.078-.55-.38-.688-1.236-.929-1.975-.789-.18.034-.287.126-.442.207-.17.088-.139.166-.318.224-.081.026-.216.124-.215.224.002.115.005.051.012.169-.021.011-.021-.005-.03-.025M15.816-10.431a.25.25 0 0 1-.026.191c-.053.101-.112.063-.165.128a.638.638 0 0 0-.079.362c-.169.058-.009.227-.015.35-.002.05-.041.105-.045.161a.764.764 0 0 0 .068.37c.097.198.268.413.435.544.19.148.365.572.608.631.177.042.384-.104.543-.143.18-.043.397.01.571-.053.222-.079.128-.337.289-.45.104-.074.287-.01.406-.051a.607.607 0 0 0 .376-.46c.016-.082.01-.145.039-.221.039-.103.111-.16.09-.293-.01-.062-.052-.12-.064-.187-.022-.114.002-.224 0-.337-.003-.2.017-.379-.078-.55-.38-.688-1.236-.929-1.975-.789-.18.034-.287.126-.442.207-.17.088-.139.166-.318.224-.081.026-.216.124-.215.224.002.115.005.051.012.169-.021.011-.021-.005-.03-.025M8.156-10.431a.25.25 0 0 1-.026.191c-.053.101-.112.063-.165.128a.636.636 0 0 0-.079.362c-.169.058-.01.227-.015.35-.003.049-.041.105-.045.161a.764.764 0 0 0 .068.37c.097.198.268.413.435.544.19.148.365.572.608.631.177.042.384-.105.543-.143.18-.043.397.01.571-.053.222-.079.127-.337.288-.45.104-.074.287-.01.406-.051a.607.607 0 0 0 .376-.46c.016-.082.01-.145.039-.221.038-.103.111-.16.09-.293-.01-.062-.052-.12-.064-.187-.022-.114.002-.224 0-.337-.003-.2.017-.379-.078-.55-.38-.688-1.236-.929-1.975-.789-.18.034-.287.126-.442.207-.17.088-.139.166-.318.224-.081.026-.216.124-.215.224.001.115.005.051.012.169-.021.011-.021-.005-.03-.025M.495-10.431a.25.25 0 0 1-.026.191c-.053.101-.112.063-.165.128a.636.636 0 0 0-.079.362c-.169.058-.01.227-.015.35-.002.05-.041.105-.045.161a.764.764 0 0 0 .068.37c.097.198.268.413.435.544.19.148.365.572.608.631.178.042.384-.105.543-.143.181-.043.398.01.572-.053.222-.079.127-.337.288-.45.104-.074.287-.01.406-.051a.607.607 0 0 0 .376-.46c.016-.082.01-.144.039-.22.039-.103.111-.16.09-.293-.01-.062-.052-.12-.064-.187-.022-.114.002-.224 0-.337-.003-.2.017-.379-.078-.55-.38-.688-1.236-.929-1.975-.789-.18.034-.287.126-.442.207-.17.088-.139.166-.318.224-.081.026-.216.124-.215.224.001.115.005.051.012.169-.021.011-.021-.005-.03-.025"/></g></g><g><path class="st2" d="M69.439-2.778a.247.247 0 0 1-.026.19c-.052.101-.113.063-.165.128a.63.63 0 0 0-.079.362c-.169.058-.01.227-.015.35-.002.05-.041.105-.045.161a.764.764 0 0 0 .068.37c.097.198.268.413.435.544.19.148.365.572.608.631.177.042.384-.104.543-.143.18-.043.397.01.571-.053.222-.079.127-.337.288-.45.104-.074.287-.01.406-.051.2-.07.339-.263.376-.46.016-.082.01-.145.039-.221.038-.103.111-.16.09-.293-.01-.062-.051-.12-.064-.187-.021-.114.002-.224.001-.337-.003-.2.017-.379-.078-.55-.38-.688-1.236-.929-1.975-.789-.18.034-.287.126-.442.207-.17.088-.139.166-.318.224-.081.026-.215.124-.215.224.002.115.005.051.012.169-.021.011-.021-.005-.03-.025M61.778-2.778a.247.247 0 0 1-.026.19c-.052.101-.112.063-.165.128a.638.638 0 0 0-.079.362c-.169.058-.01.227-.015.35-.002.05-.041.105-.045.161a.764.764 0 0 0 .068.37c.097.198.268.413.435.544.19.148.365.572.608.631.178.042.384-.104.544-.143.18-.043.397.01.571-.053.222-.079.127-.337.288-.45.104-.074.287-.01.406-.051a.607.607 0 0 0 .376-.46c.016-.082.01-.145.039-.221.039-.103.111-.16.09-.293-.01-.062-.052-.12-.064-.187-.022-.114.002-.224 0-.337-.003-.2.017-.379-.078-.55-.38-.688-1.236-.929-1.975-.789-.18.034-.287.126-.442.207-.17.088-.139.166-.318.224-.081.028-.216.125-.215.225.001.115.005.051.012.169-.021.011-.021-.005-.03-.025M54.118-2.778a.247.247 0 0 1-.026.19c-.052.101-.112.063-.165.128a.638.638 0 0 0-.079.362c-.169.058-.01.227-.015.35-.002.05-.041.105-.045.161a.764.764 0 0 0 .068.37c.097.198.268.413.435.544.19.148.365.572.608.631.178.042.384-.104.543-.143.18-.043.397.01.571-.053.222-.079.127-.337.288-.45.104-.074.287-.01.406-.051a.607.607 0 0 0 .376-.46c.016-.082.01-.145.039-.221.038-.103.111-.16.09-.293-.01-.062-.052-.12-.064-.187-.022-.114.002-.224 0-.337-.003-.2.017-.379-.078-.55-.38-.688-1.236-.929-1.975-.789-.18.034-.287.126-.442.207-.17.088-.139.166-.318.224-.08.028-.215.125-.214.225.001.115.005.051.012.169-.021.011-.021-.005-.03-.025M46.458-2.778a.247.247 0 0 1-.026.19c-.053.101-.112.063-.165.128a.638.638 0 0 0-.079.362c-.169.058-.01.227-.015.35-.003.05-.041.105-.045.161a.764.764 0 0 0 .068.37c.097.198.268.413.435.544.19.148.365.572.608.631.177.042.384-.104.543-.143.18-.043.397.01.571-.053.222-.079.127-.337.288-.45.104-.074.287-.01.406-.051a.607.607 0 0 0 .376-.46c.016-.082.01-.145.039-.221.039-.103.111-.16.09-.293-.01-.062-.052-.12-.064-.187-.022-.114.002-.224 0-.337-.003-.2.017-.379-.078-.55-.38-.688-1.236-.929-1.975-.789-.18.034-.287.126-.442.207-.17.088-.139.166-.318.224-.081.028-.216.125-.215.225.001.115.005.051.012.169-.021.011-.021-.005-.03-.025M38.797-2.778a.251.251 0 0 1-.026.19c-.053.101-.112.063-.165.128a.638.638 0 0 0-.079.362c-.169.058-.01.227-.015.35-.002.05-.041.105-.045.161a.764.764 0 0 0 .068.37c.097.198.268.413.435.544.19.148.365.572.608.631.178.042.384-.104.544-.143.18-.043.397.01.571-.053.222-.079.127-.337.288-.45.104-.074.287-.01.406-.051a.607.607 0 0 0 .376-.46c.016-.082.01-.145.039-.221.039-.103.111-.16.09-.293-.01-.062-.052-.12-.065-.187-.022-.114.002-.224 0-.337-.003-.2.017-.379-.078-.55-.38-.688-1.236-.929-1.975-.789-.18.034-.287.126-.442.207-.17.088-.139.166-.318.224-.08.028-.215.125-.214.225.001.115.005.051.012.169-.021.011-.021-.005-.03-.025M31.137-2.778a.247.247 0 0 1-.026.19c-.053.101-.112.063-.165.128a.638.638 0 0 0-.079.362c-.169.058-.01.227-.015.35-.003.05-.041.105-.045.161a.764.764 0 0 0 .068.37c.097.198.268.413.435.544.19.148.365.572.608.631.177.042.384-.104.543-.143.18-.043.397.01.571-.053.222-.079.127-.337.288-.45.104-.074.287-.01.406-.051a.607.607 0 0 0 .376-.46c.016-.082.01-.145.039-.221.039-.103.111-.16.09-.293-.01-.062-.052-.12-.064-.187-.022-.114.002-.224 0-.337-.003-.2.017-.379-.078-.55-.38-.688-1.236-.929-1.975-.789-.18.034-.287.126-.442.207-.17.088-.139.166-.318.224-.081.028-.215.125-.214.225.001.115.005.051.012.169-.021.011-.021-.005-.03-.025M23.477-2.778a.251.251 0 0 1-.026.19c-.053.101-.112.063-.165.128a.638.638 0 0 0-.079.362c-.169.058-.01.227-.015.35-.002.05-.041.105-.045.161a.764.764 0 0 0 .068.37c.097.198.268.413.435.544.19.148.365.572.608.631.177.042.384-.104.543-.143.18-.043.397.01.571-.053.222-.079.127-.337.288-.45.104-.074.287-.01.406-.051a.607.607 0 0 0 .376-.46c.016-.082.01-.145.039-.221.038-.103.111-.16.09-.293-.01-.062-.052-.12-.065-.187-.022-.114.002-.224 0-.337-.003-.2.017-.379-.078-.55-.38-.688-1.236-.929-1.975-.789-.18.034-.287.126-.442.207-.17.088-.139.166-.318.224-.081.026-.216.124-.215.224.002.115.005.051.012.169-.021.011-.021-.005-.03-.025M15.816-2.778a.247.247 0 0 1-.026.19c-.053.101-.112.063-.165.128a.638.638 0 0 0-.079.362c-.169.058-.01.227-.015.35-.002.05-.041.105-.045.161a.764.764 0 0 0 .068.37c.097.198.268.413.435.544.19.148.365.572.608.631.177.042.384-.104.543-.143.18-.043.397.01.571-.053.222-.079.128-.337.288-.45.104-.074.287-.01.406-.051a.607.607 0 0 0 .376-.46c.016-.082.01-.145.039-.221.039-.103.111-.16.09-.293-.01-.062-.052-.12-.064-.187-.022-.114.002-.224 0-.337-.003-.2.017-.379-.078-.55-.38-.688-1.236-.929-1.975-.789-.18.034-.287.126-.442.207-.17.088-.139.166-.318.224-.081.026-.216.124-.215.224.002.115.005.051.012.169-.02.012-.021-.004-.03-.024M8.156-2.778a.247.247 0 0 1-.026.19c-.053.101-.112.063-.165.128a.638.638 0 0 0-.079.362c-.169.058-.01.227-.015.35-.003.05-.041.105-.045.161a.764.764 0 0 0 .068.37c.097.198.268.413.435.544.19.148.365.572.608.631.177.042.384-.104.543-.143.18-.043.397.01.571-.053.222-.079.127-.337.288-.45.104-.074.287-.01.406-.051a.607.607 0 0 0 .376-.46c.016-.082.01-.145.039-.221.038-.103.111-.16.09-.293-.01-.062-.052-.12-.064-.187-.022-.114.002-.224 0-.337-.003-.2.017-.379-.078-.55-.38-.688-1.236-.929-1.975-.789-.179.036-.286.128-.441.209-.17.088-.139.166-.318.224-.082.026-.216.123-.215.223.001.115.005.051.011.169-.02.011-.021-.005-.03-.025M.495-2.778a.242.242 0 0 1-.026.19c-.052.101-.113.063-.165.128a.63.63 0 0 0-.079.362c-.169.058-.01.227-.015.35-.002.05-.041.105-.045.161a.764.764 0 0 0 .068.37c.097.198.268.413.435.544.19.148.365.572.608.631.178.042.384-.104.543-.143.181-.043.398.01.572-.052.222-.079.127-.337.288-.45.104-.074.287-.01.406-.051.2-.07.339-.263.376-.46.016-.082.01-.145.039-.221.038-.103.111-.16.09-.293-.01-.062-.051-.12-.064-.187-.021-.114.002-.224 0-.337-.003-.2.017-.379-.078-.55-.38-.688-1.236-.929-1.975-.789-.18.035-.286.127-.442.208-.17.088-.139.166-.318.224-.081.026-.215.123-.215.223.002.115.005.051.012.169-.021.011-.022-.005-.031-.025"/></g></pattern><path class="st2" d="M22.719 19.905v-.109c4.651 0 8.222-3.569 8.925-8.167C33.05 2.812 25.91 0 19.419 0H6.437L0 40.785h14.821c9.845 0 13.902-6.6 14.713-11.631.866-5.463-1.46-8.817-6.815-9.249zm-4.166 8.114c-.432 2.76-2.758 3.949-5.193 3.949h-.92l1.244-7.843h.866c2.543 0 4.437 1.136 4.003 3.894zm2.002-15.741c-.379 2.65-2.651 3.571-4.923 3.571h-.649l1.136-7.033h1.082c2.273 0 3.787 1.028 3.354 3.462zM44.415 4.191h-9.903L28.736 40.79h17.329l1.359-8.639h-7.426zM67.346 26.569l1.408-8.641h-7.621l.775-5.097h8.495l1.36-8.64H53.365L47.59 40.79h18.396l1.36-8.639h-8.495l.874-5.582zM87.479 22.831c-.873-1.65-2.33-3.01-4.174-4.466-.436-.437-1.117-.923-1.553-1.504-.438-.583-.777-1.262-.632-2.04.194-1.408 1.748-2.233 2.912-2.233 2.282 0 4.321 2.088 5.193 3.933l1.748-11.116C89.08 4.289 86.605 3.56 84.227 3.56c-8.445 0-12.379 7.768-13.058 12.039-.437 2.669.049 4.709.971 6.408 1.019 1.746 2.477 3.154 4.175 4.658.584.437 1.068.874 1.408 1.408.436.534.631 1.166.484 2.039-.242 1.602-1.941 2.428-3.3 2.428-2.524 0-4.563-2.039-5.631-4.078l-1.797 11.455a17.8 17.8 0 0 0 7.186 1.506c6.892 0 12.522-5.438 13.591-12.233.437-2.767.098-4.708-.777-6.359zM120.001 4.191h-10.436L101.7 19.773h-.048l2.428-15.582h-9.903L88.4 40.79h9.903l2.67-16.795h.048l3.495 16.795h10.63l-5.825-18.93zM181.718 4.496h-21.471l-1.333 8.941h9.479L155.51 32.606l-1.166 7.977h23.078l1.33-8.994H167.99l12.567-19.063zM124.158 31.426a4.777 4.777 0 1 0 0 9.554 4.777 4.777 0 0 0 0-9.554zM147.403 32.178c-1.874 0-3.196-.751-3.356-4.069-.061-1.232.025-2.783.354-4.819 1.237-8.729 3.501-10.603 6.501-10.603 1.435 0 3.054.581 4.1 1.165l1.38-8.738c-1.986-.924-4.434-1.369-6.934-1.369-8.781 0-14.039 6.372-15.723 17.992-.482 3.319-.67 6.051-.553 8.46.4 8.247 4.289 11.137 11.25 11.137 2.387 0 4.458-.422 6.422-1.137l1.478-9.369-.008-.042c-1.46.748-3.573 1.392-4.911 1.392z"/></svg>