<svg xmlns="http://www.w3.org/2000/svg" width="28" height="28" viewBox="0 0 28 28"><g transform="translate(-.478 -.5)"><path fill="rgba(197,31,38,0)" d="M0 0H28V28H0z" transform="translate(.478 .5)"/><path fill="#ffffff" fill-rule="evenodd" d="M708.314 125.639a14.078 14.078 0 0 0-3.2 27.767v-3.569c0-1.932-.007-3.863.007-5.794 0-.325-.089-.427-.413-.414-.6.025-1.2 0-1.8.011-.243.006-.332-.061-.329-.32q.018-1.807 0-3.615c0-.232.067-.308.3-.3.613.014 1.227-.017 1.838.014.355.017.428-.109.42-.44q-.032-1.375 0-2.753a5.3 5.3 0 0 1 .987-3.076 4.249 4.249 0 0 1 3.411-1.743c1.414-.063 2.833-.028 4.249-.043.2 0 .256.069.255.261q-.01 1.828 0 3.657c0 .217-.068.283-.28.28-.682-.011-1.363 0-2.044 0a1.352 1.352 0 0 0-1.506 1.374c-.046.724-.012 1.451-.029 2.177-.006.258.146.24.317.24 1.035 0 2.07.01 3.105-.007.3-.006.4.064.37.386-.131 1.211-.243 2.424-.346 3.638-.023.274-.148.326-.393.322-.817-.013-1.634-.009-2.451 0-.587 0-.53-.087-.53.516q0 4.721.007 9.441a14.073 14.073 0 0 0-1.952-28z" transform="translate(-693.836 -125.139)"/></g></svg>
