<svg xmlns="http://www.w3.org/2000/svg" width="28" height="28" viewBox="0 0 28 28"><g transform="translate(-.327 -.5)"><path fill="rgba(255,255,255,0)" d="M0 0H28V28H0z" transform="translate(.327 .5)"/><path d="M13.994 2.522c3.736 0 4.178.012 5.656.08a7.636 7.636 0 0 1 2.6.485 4.325 4.325 0 0 1 1.607 1.049 4.4 4.4 0 0 1 1.049 1.608 7.888 7.888 0 0 1 .485 2.6c.067 1.479.08 1.921.08 5.658s-.012 4.179-.08 5.658a7.641 7.641 0 0 1-.485 2.6 4.326 4.326 0 0 1-1.049 1.608 4.4 4.4 0 0 1-1.607 1.049 7.883 7.883 0 0 1-2.6.485c-1.479.067-1.92.08-5.656.08s-4.178-.012-5.656-.08a7.636 7.636 0 0 1-2.6-.485 4.325 4.325 0 0 1-1.609-1.047 4.4 4.4 0 0 1-1.049-1.607 7.888 7.888 0 0 1-.485-2.6c-.067-1.479-.08-1.921-.08-5.658s.012-4.179.08-5.658a7.641 7.641 0 0 1 .485-2.6 4.326 4.326 0 0 1 1.049-1.611 4.4 4.4 0 0 1 1.607-1.049 7.883 7.883 0 0 1 2.6-.485c1.479-.067 1.92-.08 5.656-.08m0-2.522c-3.8 0-4.276.018-5.773.086a10.321 10.321 0 0 0-3.4.65A6.828 6.828 0 0 0 2.344 2.35 6.892 6.892 0 0 0 .736 4.829a10.328 10.328 0 0 0-.65 3.4C.018 9.72 0 10.2 0 14s.018 4.277.086 5.774a10.328 10.328 0 0 0 .65 3.4A6.83 6.83 0 0 0 2.35 25.65a6.828 6.828 0 0 0 2.478 1.614 10.321 10.321 0 0 0 3.4.65C9.718 27.982 10.2 28 14 28s4.276-.018 5.773-.086a10.321 10.321 0 0 0 3.4-.65 7.15 7.15 0 0 0 4.092-4.093 10.328 10.328 0 0 0 .65-3.4C27.981 18.28 28 17.8 28 14s-.018-4.277-.086-5.774a10.328 10.328 0 0 0-.65-3.4 6.83 6.83 0 0 0-1.614-2.482A6.828 6.828 0 0 0 23.171.73a10.321 10.321 0 0 0-3.4-.65C18.276.018 17.8 0 13.994 0" fill="#ffffff" transform="translate(.327 .5)"/><path d="M118.186 111a7.189 7.189 0 1 0 7.2 7.186 7.183 7.183 0 0 0-7.2-7.186m0 11.855a4.664 4.664 0 1 1 4.664-4.664 4.662 4.662 0 0 1-4.664 4.664" fill="#ffffff" transform="translate(-103.862 -103.688)"/><path d="M325.863 80.681A1.681 1.681 0 1 1 324.181 79a1.684 1.684 0 0 1 1.681 1.681" fill="#ffffff" transform="translate(-302.384 -73.652)"/></g></svg>
