<svg xmlns="http://www.w3.org/2000/svg" width="18" height="18" viewBox="0 0 18.25 18.25"><defs><clipPath id="prefix__clip-path"><circle cx="8.61" cy="8.61" r="8.61" fill="#ffffff"/></clipPath></defs><path d="M9.125 18.25A9.128 9.128 0 0 1 5.573.717a9.128 9.128 0 0 1 7.1 16.816 9.075 9.075 0 0 1-3.552.717zm0-17.22a8.1 8.1 0 1 0 8.1 8.1 8.106 8.106 0 0 0-8.1-8.1z" fill="#ffffff"/><g clip-path="url(#prefix__clip-path)" transform="translate(.515 .346)"><path d="M64.148 193.819c-.9-.626-2.076-.594-4.028-1.09-.917-.329-1-.905-.835-2.223a5.242 5.242 0 0 0 .917-1.648.915.915 0 0 0 .751-.66c.05-.156.334-1.318.084-1.646a.678.678 0 0 0-.419-.411c.334-2.06.246-2.476-.168-3.13a3.74 3.74 0 0 0-3.138-1.612 3.9 3.9 0 0 0-3.224 1.612c-.412.652-.5 1.071-.168 3.13a.691.691 0 0 0-.419.411c-.25.329.033 1.49.084 1.646a.918.918 0 0 0 .751.66 5.325 5.325 0 0 0 .917 1.648c.168 1.317.084 1.894-.835 2.223-1.952.494-3.124.462-4.028 1.09a6.712 6.712 0 0 0-1.39 2.753h16.532a6.631 6.631 0 0 0-1.384-2.753z" fill="#ffffff" transform="translate(-48.677 -178.642)"/></g></svg>
