<?xml version="1.0" encoding="utf-8"?>
<!-- Generator: Adobe Illustrator 15.0.2, SVG Export Plug-In . SVG Version: 6.00 Build 0)  -->
<!DOCTYPE svg PUBLIC "-//W3C//DTD SVG 1.1//EN" "http://www.w3.org/Graphics/SVG/1.1/DTD/svg11.dtd">
<svg version="1.1" id="Ebene_1" xmlns="http://www.w3.org/2000/svg" xmlns:xlink="http://www.w3.org/1999/xlink" x="0px" y="0px"
	 width="170.286px" height="74.521px" viewBox="0 0 170.286 74.521" enable-background="new 0 0 170.286 74.521"
	 xml:space="preserve">
<rect id="XMLID_1_" fill="#30A2B2" width="170.286" height="74.521"/>
<g>
	<g>
		<path fill="#FFFFFF" d="M17.411,16.43h6.982l3.97,11.835l3.955-11.835h7.148v1.09h-1.559c-0.387,0-0.652,0.07-0.798,0.213
			c-0.146,0.142-0.219,0.387-0.219,0.733v13.362c0,0.339,0.078,0.57,0.235,0.699c0.237,0.188,0.556,0.282,0.958,0.282h1.382v1.09
			h-8.809v-1.09h1.647c0.301,0,0.532-0.086,0.69-0.259c0.159-0.176,0.238-0.412,0.238-0.722V17.528L27.711,33.9h-1.028
			l-5.539-16.513v12.776c0,0.734,0.229,1.333,0.688,1.802s1.126,0.751,1.997,0.845v1.09h-6.418v-1.09
			c0.814-0.069,1.446-0.36,1.898-0.863c0.45-0.503,0.677-1.146,0.677-1.927V18.715c0-0.481-0.082-0.801-0.248-0.958
			c-0.162-0.157-0.481-0.236-0.951-0.236h-1.376V16.43z"/>
		<path fill="#FFFFFF" d="M40.39,16.43h15.055l0.335,6.125h-1.04c-0.244-1.446-0.547-2.49-0.91-3.129
			c-0.364-0.637-0.84-1.113-1.43-1.431c-0.59-0.316-1.363-0.475-2.315-0.475h-2.368c-0.369,0-0.635,0.072-0.798,0.217
			c-0.164,0.146-0.247,0.349-0.247,0.608v6.05h0.808c0.925,0,1.644-0.268,2.153-0.801c0.511-0.534,0.812-1.394,0.906-2.58h1.04
			v8.152h-1.04c-0.071-1.35-0.364-2.302-0.876-2.853c-0.514-0.553-1.289-0.83-2.324-0.83h-0.667v6.463
			c0,0.284,0.083,0.484,0.247,0.604c0.248,0.173,0.608,0.259,1.076,0.259h2.082c1.427,0,2.593-0.462,3.497-1.384
			c0.906-0.922,1.467-2.315,1.686-4.175h1.042L56.039,33.9H40.39v-1.09h1.538c0.347,0,0.61-0.09,0.791-0.271
			c0.182-0.184,0.272-0.426,0.272-0.732V18.348c0-0.284-0.091-0.493-0.272-0.626c-0.181-0.134-0.507-0.202-0.977-0.202H40.39V16.43z
			"/>
		<path fill="#FFFFFF" d="M64.826,32.81c-0.361,0-0.621-0.086-0.786-0.259c-0.163-0.176-0.245-0.46-0.245-0.854V18.455
			c0-0.354,0.102-0.6,0.306-0.733c0.204-0.134,0.708-0.202,1.515-0.202c1.468,0,2.581,0.234,3.34,0.706
			c0.757,0.468,1.357,1.257,1.801,2.367c0.443,1.106,0.665,2.704,0.665,4.786c0,1.981-0.188,3.443-0.563,4.388
			c-0.375,0.94-0.986,1.683-1.831,2.229c-0.846,0.545-1.815,0.815-2.909,0.815H64.826z M57.491,17.52h1.288
			c0.449,0,0.768,0.081,0.958,0.242c0.188,0.162,0.283,0.421,0.283,0.775V31.71c0,0.348-0.092,0.616-0.272,0.812
			c-0.181,0.192-0.449,0.288-0.803,0.288h-1.454v1.09h9.79c1.534,0,2.969-0.381,4.308-1.147c1.336-0.762,2.342-1.788,3.014-3.076
			c0.673-1.287,1.008-2.801,1.008-4.541c0-1.677-0.367-3.185-1.104-4.524c-0.734-1.337-1.751-2.371-3.05-3.095
			c-1.298-0.725-2.804-1.087-4.52-1.087h-9.446V17.52z"/>
		<path fill="#FFFFFF" d="M75.693,16.43h8.959v1.09h-1.611c-0.346,0-0.598,0.069-0.753,0.208c-0.156,0.136-0.234,0.339-0.234,0.608
			v13.541c0,0.313,0.082,0.537,0.247,0.674c0.211,0.173,0.516,0.259,0.915,0.259h1.437v1.09h-8.959v-1.09h1.378
			c0.475,0,0.809-0.078,1.003-0.237c0.195-0.158,0.291-0.389,0.291-0.695V18.489c0-0.331-0.089-0.575-0.267-0.733
			c-0.18-0.157-0.457-0.236-0.837-0.236h-1.568V16.43z"/>
		<path fill="#FFFFFF" d="M97.639,17.791l0.782-1.737h0.86l0.3,6.988h-1.048c-0.338-2.008-0.972-3.501-1.904-4.476
			c-0.934-0.972-1.999-1.46-3.195-1.46c-1.317,0-2.406,0.627-3.27,1.88c-0.862,1.256-1.291,3.234-1.291,5.934
			c0,2.862,0.474,4.982,1.425,6.371c0.762,1.087,1.886,1.633,3.368,1.633c1.485,0,2.733-0.548,3.748-1.637
			c0.729-0.794,1.24-1.963,1.531-3.51h1.049c-0.252,1.993-1.01,3.567-2.273,4.725s-2.817,1.737-4.661,1.737
			c-2.386,0-4.388-0.841-6-2.528c-1.612-1.682-2.418-3.84-2.418-6.471c0-2.918,0.928-5.252,2.788-6.996
			c1.584-1.484,3.438-2.226,5.564-2.226c0.837,0,1.616,0.134,2.333,0.402C96.046,16.688,96.815,17.146,97.639,17.791z"/>
		<path fill="#FFFFFF" d="M109.731,27.063h-5.6l2.818-6.639L109.731,27.063z M107.555,16.017l-6.342,14.934
			c-0.256,0.591-0.613,1.079-1.074,1.457c-0.327,0.269-0.704,0.402-1.133,0.402h-0.382v1.09h6.684v-1.09h-0.561
			c-0.659,0-1.179-0.16-1.56-0.479c-0.383-0.319-0.572-0.736-0.572-1.25c0-0.299,0.131-0.757,0.394-1.374l0.627-1.479h6.586
			l1.357,3.244c0.095,0.229,0.143,0.43,0.143,0.604c0,0.223-0.115,0.398-0.346,0.532c-0.229,0.136-0.646,0.202-1.255,0.202h-0.771
			v1.09h8.231v-1.09h-0.646c-0.369,0-0.664-0.078-0.888-0.237c-0.225-0.158-0.433-0.456-0.624-0.9l-6.559-15.655H107.555z"/>
		<path fill="#FFFFFF" d="M118.411,17.52v-1.09h9.008v1.09h-1.509c-0.434,0-0.734,0.083-0.907,0.249
			c-0.174,0.165-0.26,0.434-0.26,0.803V31.58c0,0.53,0.083,0.866,0.248,1.013c0.167,0.146,0.56,0.218,1.182,0.218h2.529
			c0.944,0,1.824-0.445,2.641-1.335c0.817-0.889,1.444-2.31,1.879-4.264h1.055l-0.413,6.688h-15.452v-1.09h1.558
			c0.343,0,0.604-0.086,0.779-0.259c0.176-0.176,0.265-0.417,0.265-0.733V18.441c0-0.322-0.092-0.558-0.271-0.702
			c-0.182-0.146-0.488-0.219-0.93-0.219H118.411z"/>
	</g>
	<g>
		<path fill="#FFFFFF" d="M17.391,35.732h17.463v5.514h-5.866v16.858h-5.731V41.246h-5.865V35.732z"/>
		<path fill="#FFFFFF" d="M43.071,40.248h3.01c1.25,0,2.103,0.192,2.556,0.582c0.455,0.386,0.681,0.941,0.681,1.664
			c0,0.49-0.144,0.919-0.43,1.298c-0.288,0.377-0.659,0.61-1.113,0.702C46.877,44.7,46.272,44.8,45.96,44.8h-2.889V40.248z
			 M43.071,58.104v-9.069h0.606c0.627,0,1.187,0.175,1.683,0.519c0.364,0.266,0.779,0.84,1.243,1.722l3.676,6.828h7.791
			l-3.348-6.472c-0.162-0.325-0.483-0.789-0.965-1.389c-0.479-0.602-0.847-0.995-1.099-1.179c-0.375-0.274-0.971-0.548-1.791-0.824
			c1.023-0.234,1.826-0.529,2.413-0.885c0.92-0.561,1.644-1.292,2.17-2.195c0.525-0.898,0.79-1.972,0.79-3.211
			c0-1.426-0.346-2.637-1.033-3.629c-0.689-0.992-1.595-1.671-2.718-2.037c-1.125-0.367-2.749-0.552-4.876-0.552H36.148v22.372
			H43.071z"/>
		<path fill="#FFFFFF" d="M58.945,35.732h6.97v22.372h-6.97V35.732z"/>
		<path fill="#FFFFFF" d="M74.956,40.287h3.053c1.049,0,1.785,0.186,2.207,0.55s0.633,0.872,0.633,1.521
			c0,0.702-0.211,1.235-0.633,1.608c-0.422,0.371-1.175,0.556-2.253,0.556h-3.007V40.287z M67.938,58.104h11.987
			c0.512,0,1.549-0.103,3.111-0.306c1.176-0.15,2.054-0.395,2.637-0.731c0.939-0.538,1.681-1.269,2.224-2.193
			c0.542-0.921,0.813-1.964,0.813-3.123c0-1.422-0.381-2.605-1.143-3.541c-0.763-0.94-1.954-1.603-3.57-1.988
			c1.064-0.369,1.873-0.866,2.426-1.499c0.83-0.949,1.244-2.084,1.244-3.411c0-1.581-0.58-2.905-1.74-3.974
			c-1.159-1.071-2.822-1.607-4.988-1.607h-13V58.104z M74.956,48.796h3.509c1.212,0,2.058,0.199,2.541,0.599
			c0.483,0.402,0.726,0.932,0.726,1.591c0,0.71-0.243,1.272-0.733,1.694c-0.488,0.419-1.328,0.63-2.518,0.63h-3.524V48.796z"/>
		<path fill="#FFFFFF" d="M104.075,35.732h6.944v13.34c0,1.323-0.207,2.572-0.621,3.748c-0.414,1.175-1.064,2.201-1.95,3.082
			c-0.884,0.881-1.813,1.499-2.783,1.854c-1.349,0.499-2.972,0.748-4.863,0.748c-1.096,0-2.288-0.076-3.583-0.229
			c-1.294-0.153-2.377-0.455-3.246-0.909c-0.868-0.451-1.665-1.094-2.386-1.93s-1.213-1.694-1.479-2.58
			c-0.43-1.424-0.644-2.684-0.644-3.784v-13.34h6.943v13.65c0,1.22,0.34,2.172,1.018,2.858c0.68,0.689,1.621,1.031,2.824,1.031
			c1.194,0,2.13-0.337,2.808-1.015c0.68-0.675,1.019-1.634,1.019-2.875V35.732z"/>
		<path fill="#FFFFFF" d="M113.204,35.732h6.463l8.43,12.382V35.732h6.508v22.372h-6.508l-8.385-12.313v12.313h-6.508V35.732z"/>
		<path fill="#FFFFFF" d="M136.624,35.732h15.995v4.794h-9.996v3.556h9.272v4.554h-9.272v4.394h10.272v5.074h-16.271V35.732z"/>
	</g>
</g>
</svg>
