<?xml version="1.0" encoding="utf-8"?>
<!-- Generator: Adobe Illustrator 15.0.2, SVG Export Plug-In . SVG Version: 6.00 Build 0)  -->
<!DOCTYPE svg PUBLIC "-//W3C//DTD SVG 1.1//EN" "http://www.w3.org/Graphics/SVG/1.1/DTD/svg11.dtd">
<svg version="1.1" id="Ebene_1" xmlns="http://www.w3.org/2000/svg" xmlns:xlink="http://www.w3.org/1999/xlink" x="0px" y="0px"
	 width="152.088px" height="71.594px" viewBox="0 0 152.088 71.594" enable-background="new 0 0 152.088 71.594"
	 xml:space="preserve">
<g>
	<path fill="#FFFFFF" d="M9.25,6.875h6.982l3.97,11.835l3.955-11.835h7.148v1.09h-1.559c-0.386,0-0.652,0.07-0.798,0.213
		C28.802,8.32,28.73,8.565,28.73,8.911v13.362c0,0.339,0.078,0.569,0.235,0.699c0.237,0.188,0.556,0.282,0.958,0.282h1.382v1.09
		h-8.808v-1.09h1.647c0.301,0,0.532-0.086,0.69-0.26c0.159-0.176,0.238-0.412,0.238-0.722V7.974L19.55,24.346h-1.028L12.983,7.833
		v12.776c0,0.733,0.229,1.333,0.688,1.802s1.126,0.752,1.997,0.846v1.09H9.25v-1.09c0.815-0.069,1.447-0.36,1.899-0.863
		c0.45-0.503,0.676-1.146,0.676-1.927V9.161c0-0.481-0.082-0.801-0.248-0.958c-0.163-0.157-0.482-0.236-0.951-0.236H9.25V6.875z"/>
	<path fill="#FFFFFF" d="M32.229,6.875h15.055L47.618,13h-1.04c-0.244-1.446-0.546-2.49-0.91-3.129
		c-0.364-0.637-0.84-1.113-1.43-1.431c-0.59-0.316-1.363-0.475-2.316-0.475h-2.368c-0.369,0-0.635,0.072-0.798,0.217
		c-0.164,0.146-0.247,0.349-0.247,0.608v6.05h0.807c0.925,0,1.644-0.268,2.154-0.801c0.51-0.534,0.811-1.394,0.906-2.58h1.041v8.152
		h-1.041c-0.071-1.35-0.364-2.302-0.876-2.853c-0.514-0.553-1.289-0.83-2.324-0.83H38.51v6.463c0,0.283,0.083,0.484,0.247,0.604
		c0.249,0.174,0.608,0.26,1.076,0.26h2.082c1.427,0,2.593-0.463,3.498-1.385c0.906-0.922,1.466-2.314,1.686-4.175h1.042
		l-0.261,6.647H32.23v-1.09h1.538c0.347,0,0.611-0.09,0.791-0.271c0.182-0.185,0.272-0.426,0.272-0.731V8.794
		c0-0.284-0.09-0.493-0.272-0.626c-0.18-0.134-0.506-0.202-0.976-0.202H32.23L32.229,6.875L32.229,6.875z"/>
	<path fill="#FFFFFF" d="M56.665,23.256c-0.361,0-0.621-0.086-0.786-0.26c-0.164-0.176-0.246-0.459-0.246-0.854V8.901
		c0-0.354,0.102-0.6,0.306-0.733c0.204-0.134,0.708-0.202,1.515-0.202c1.468,0,2.581,0.234,3.34,0.706
		c0.757,0.468,1.357,1.257,1.801,2.367c0.443,1.106,0.665,2.704,0.665,4.786c0,1.981-0.188,3.443-0.563,4.388
		c-0.375,0.94-0.986,1.683-1.832,2.229c-0.845,0.545-1.815,0.814-2.909,0.814H56.665L56.665,23.256z M49.331,7.966h1.288
		c0.449,0,0.768,0.081,0.958,0.242c0.188,0.162,0.284,0.421,0.284,0.775v13.174c0,0.348-0.092,0.615-0.272,0.811
		c-0.181,0.193-0.449,0.289-0.803,0.289h-1.454v1.09h9.79c1.534,0,2.969-0.381,4.308-1.146c1.335-0.763,2.341-1.789,3.013-3.077
		c0.673-1.287,1.008-2.801,1.008-4.541c0-1.677-0.367-3.185-1.104-4.524c-0.734-1.337-1.751-2.371-3.049-3.095
		C62,7.238,60.494,6.876,58.778,6.876h-9.446L49.331,7.966L49.331,7.966z"/>
	<path fill="#FFFFFF" d="M67.533,6.875h8.959v1.09H74.88c-0.346,0-0.598,0.069-0.753,0.208c-0.156,0.136-0.234,0.339-0.234,0.608
		v13.542c0,0.313,0.082,0.536,0.247,0.674c0.211,0.172,0.516,0.258,0.915,0.258h1.437v1.09h-8.959v-1.09h1.378
		c0.475,0,0.809-0.078,1.002-0.236c0.195-0.158,0.291-0.389,0.291-0.695V8.935c0-0.331-0.089-0.575-0.267-0.733
		c-0.179-0.157-0.457-0.236-0.836-0.236h-1.568V6.875z"/>
	<path fill="#FFFFFF" d="M89.478,8.236L90.26,6.5h0.86l0.3,6.988h-1.048c-0.338-2.008-0.972-3.501-1.904-4.476
		c-0.934-0.972-1.999-1.46-3.195-1.46c-1.317,0-2.406,0.627-3.27,1.88c-0.862,1.256-1.291,3.234-1.291,5.934
		c0,2.862,0.474,4.982,1.425,6.371c0.762,1.088,1.886,1.633,3.368,1.633c1.485,0,2.733-0.547,3.748-1.637
		c0.729-0.794,1.24-1.963,1.531-3.51h1.048c-0.252,1.993-1.009,3.566-2.272,4.725s-2.817,1.737-4.661,1.737
		c-2.386,0-4.388-0.841-6-2.528c-1.612-1.682-2.418-3.84-2.418-6.471c0-2.918,0.928-5.252,2.788-6.996
		c1.584-1.484,3.438-2.226,5.564-2.226c0.837,0,1.616,0.134,2.333,0.402C87.885,7.134,88.655,7.591,89.478,8.236z"/>
	<path fill="#FFFFFF" d="M101.571,17.509h-5.6l2.818-6.639L101.571,17.509z M99.394,6.463l-6.343,14.934
		c-0.256,0.591-0.612,1.079-1.073,1.457c-0.327,0.27-0.704,0.402-1.133,0.402h-0.382v1.09h6.684v-1.09h-0.561
		c-0.66,0-1.18-0.16-1.561-0.479c-0.383-0.319-0.572-0.735-0.572-1.25c0-0.299,0.131-0.757,0.395-1.374l0.627-1.479h6.586
		l1.357,3.245c0.095,0.229,0.143,0.43,0.143,0.604c0,0.223-0.115,0.398-0.346,0.532c-0.229,0.136-0.646,0.202-1.256,0.202h-0.771
		v1.09h8.231v-1.09h-0.646c-0.369,0-0.664-0.078-0.889-0.237c-0.225-0.158-0.432-0.456-0.623-0.899l-6.559-15.656L99.394,6.463
		L99.394,6.463z"/>
	<path fill="#FFFFFF" d="M110.25,7.966v-1.09h9.008v1.09h-1.51c-0.434,0-0.733,0.083-0.906,0.249
		c-0.174,0.165-0.26,0.434-0.26,0.803v13.007c0,0.53,0.082,0.866,0.248,1.013s0.56,0.219,1.182,0.219h2.529
		c0.943,0,1.824-0.445,2.641-1.336c0.816-0.889,1.443-2.31,1.879-4.263h1.055l-0.412,6.687H110.25v-1.09h1.558
		c0.343,0,0.604-0.086,0.778-0.258c0.177-0.177,0.266-0.418,0.266-0.733V8.887c0-0.322-0.092-0.558-0.271-0.702
		c-0.182-0.146-0.488-0.219-0.93-0.219H110.25z"/>
</g>
<g>
	<path fill="#FFFFFF" d="M9.229,26.178h17.463v5.514h-5.866v16.857h-5.731V31.692H9.229V26.178z"/>
	<path fill="#FFFFFF" d="M34.911,30.694h3.01c1.25,0,2.102,0.191,2.556,0.582c0.455,0.387,0.68,0.941,0.68,1.664
		c0,0.49-0.143,0.919-0.43,1.298c-0.288,0.378-0.659,0.61-1.113,0.702c-0.897,0.205-1.501,0.307-1.814,0.307h-2.889V30.694z
		 M34.911,48.549v-9.068h0.606c0.627,0,1.187,0.176,1.683,0.52c0.364,0.266,0.779,0.84,1.243,1.722l3.676,6.827h7.791l-3.347-6.471
		c-0.163-0.326-0.483-0.789-0.965-1.39c-0.479-0.603-0.847-0.995-1.099-1.179c-0.375-0.274-0.971-0.549-1.791-0.824
		c1.023-0.234,1.826-0.529,2.413-0.885c0.919-0.561,1.644-1.293,2.169-2.195c0.526-0.898,0.79-1.973,0.79-3.211
		c0-1.426-0.345-2.637-1.033-3.629c-0.689-0.992-1.595-1.672-2.718-2.037c-1.125-0.367-2.749-0.553-4.875-0.553H27.988v22.373
		H34.911z"/>
	<path fill="#FFFFFF" d="M50.785,26.178h6.97v22.371h-6.97V26.178z"/>
	<path fill="#FFFFFF" d="M66.795,30.733h3.053c1.049,0,1.785,0.186,2.207,0.551c0.422,0.363,0.633,0.871,0.633,1.521
		c0,0.702-0.211,1.235-0.633,1.608c-0.422,0.371-1.175,0.555-2.253,0.555h-3.007V30.733z M59.777,48.549h11.987
		c0.512,0,1.549-0.102,3.112-0.305c1.176-0.15,2.054-0.396,2.637-0.731c0.939-0.538,1.681-1.269,2.224-2.193
		c0.542-0.921,0.813-1.964,0.813-3.122c0-1.423-0.381-2.605-1.143-3.541c-0.763-0.941-1.954-1.604-3.57-1.988
		c1.064-0.369,1.873-0.867,2.426-1.5c0.83-0.949,1.244-2.084,1.244-3.41c0-1.582-0.58-2.905-1.74-3.975
		c-1.159-1.07-2.822-1.607-4.988-1.607h-13v22.373H59.777z M66.795,39.243h3.509c1.212,0,2.058,0.198,2.542,0.598
		c0.483,0.402,0.726,0.933,0.726,1.592c0,0.71-0.243,1.271-0.733,1.693c-0.489,0.42-1.329,0.631-2.518,0.631h-3.524v-4.514H66.795z"
		/>
	<path fill="#FFFFFF" d="M95.915,26.178h6.944v13.34c0,1.322-0.207,2.572-0.621,3.748c-0.413,1.175-1.063,2.201-1.95,3.082
		c-0.884,0.881-1.813,1.499-2.783,1.854c-1.348,0.5-2.971,0.748-4.862,0.748c-1.097,0-2.288-0.076-3.583-0.229
		c-1.294-0.153-2.377-0.455-3.246-0.909c-0.868-0.451-1.665-1.095-2.386-1.931c-0.721-0.836-1.213-1.693-1.479-2.58
		c-0.43-1.424-0.644-2.684-0.644-3.783v-13.34h6.943v13.65c0,1.219,0.34,2.172,1.018,2.857c0.68,0.689,1.621,1.031,2.823,1.031
		c1.195,0,2.131-0.338,2.809-1.016c0.68-0.675,1.02-1.634,1.02-2.875V26.178H95.915z"/>
	<path fill="#FFFFFF" d="M105.043,26.178h6.463l8.43,12.382V26.178h6.508v22.371h-6.508l-8.385-12.313v12.313h-6.508V26.178z"/>
	<path fill="#FFFFFF" d="M128.463,26.178h15.994v4.794h-9.996v3.556h9.272v4.555h-9.272v4.394h10.272v5.073h-16.271V26.178z"/>
</g>
<g>
	<path fill="#FFFFFF" d="M13.989,69.719l-3.472-11.642h1.572l1.606,5.647c0.432,1.503,0.846,2.988,1.123,4.388h0.052
		c0.276-1.382,0.708-2.901,1.157-4.37l1.71-5.665h1.555l-3.731,11.642H13.989z"/>
	<path fill="#FFFFFF" d="M27.375,65.488c0,3.126-1.952,4.404-3.749,4.404c-2.038,0-3.627-1.572-3.627-4.301
		c0-2.867,1.71-4.405,3.749-4.405C25.872,61.186,27.375,62.828,27.375,65.488z M21.485,65.556c0,1.693,0.812,3.23,2.211,3.23
		c1.364,0,2.193-1.555,2.193-3.265c0-1.382-0.57-3.213-2.193-3.213C22.106,62.309,21.485,64.054,21.485,65.556z"/>
	<path fill="#FFFFFF" d="M29.206,63.587c0-0.898-0.035-1.537-0.069-2.229h1.295l0.069,1.261h0.052
		c0.397-0.742,1.278-1.434,2.505-1.434c1.157,0,2.66,0.743,2.66,3.368v5.165h-1.451v-4.992c0-1.243-0.415-2.331-1.693-2.331
		c-0.864,0-1.572,0.639-1.813,1.502c-0.052,0.19-0.086,0.449-0.086,0.726v5.096h-1.468V63.587z"/>
	<path fill="#FFFFFF" d="M43.317,66.109l-1.071,3.61h-1.485l3.576-11.642h1.71l3.558,11.642h-1.52l-1.105-3.61H43.317z M43.68,57.3
		c-0.466,0-0.794-0.38-0.794-0.847c0-0.483,0.346-0.863,0.812-0.863c0.483,0,0.812,0.38,0.812,0.863
		c0,0.467-0.328,0.847-0.812,0.847H43.68z M46.703,64.969l-0.984-3.23c-0.225-0.777-0.397-1.554-0.553-2.279h-0.052
		c-0.155,0.726-0.328,1.537-0.535,2.263l-1.002,3.247H46.703z M46.754,57.3c-0.466,0-0.794-0.38-0.794-0.847
		c0-0.483,0.363-0.863,0.829-0.863s0.794,0.38,0.794,0.863c0,0.467-0.311,0.847-0.812,0.847H46.754z"/>
	<path fill="#FFFFFF" d="M51.21,63.83c0-0.898-0.035-1.728-0.069-2.471h1.295l0.052,1.537h0.052c0.363-1.019,1.209-1.71,2.159-1.71
		c0.138,0,0.259,0.018,0.38,0.035v1.416c-0.138-0.034-0.276-0.034-0.449-0.034c-1.001,0-1.727,0.794-1.9,1.883
		c-0.052,0.207-0.069,0.466-0.069,0.726v4.508H51.21V63.83z"/>
	<path fill="#FFFFFF" d="M55.649,68.856l3.42-4.992c0.328-0.449,0.656-0.863,0.984-1.278v-0.034h-4.076v-1.192h5.804v0.933
		l-3.403,4.923c-0.328,0.449-0.639,0.881-0.95,1.278v0.052h4.388v1.175h-6.167V68.856z"/>
	<path fill="#FFFFFF" d="M65.115,59.373v1.986h2.003v1.123h-2.003v4.629c0,1.054,0.311,1.555,1.054,1.555
		c0.345,0,0.57-0.034,0.777-0.086l0.069,1.105c-0.276,0.12-0.691,0.189-1.244,0.189c-0.639,0-1.192-0.207-1.537-0.604
		c-0.397-0.432-0.57-1.123-0.57-2.142v-4.646h-1.209v-1.123h1.209v-1.503L65.115,59.373z"/>
	<path fill="#FFFFFF" d="M69.588,65.764c0.035,2.211,1.244,2.971,2.591,2.971c0.933,0,1.554-0.19,2.038-0.397l0.259,1.054
		c-0.518,0.242-1.382,0.483-2.504,0.483c-2.401,0-3.8-1.692-3.8-4.215c0-2.573,1.399-4.474,3.61-4.474
		c2.418,0,3.109,2.211,3.109,3.853c0,0.328-0.017,0.553-0.034,0.726H69.588z M73.492,64.71c0.017-1.175-0.466-2.453-1.848-2.453
		c-1.347,0-1.935,1.364-2.038,2.453H73.492z"/>
	<path fill="#FFFFFF" d="M76.705,63.587c0-0.898-0.035-1.537-0.069-2.229h1.295L78,62.62h0.052c0.397-0.742,1.278-1.434,2.505-1.434
		c1.157,0,2.66,0.743,2.66,3.368v5.165h-1.451v-4.992c0-1.243-0.415-2.331-1.693-2.331c-0.864,0-1.572,0.639-1.813,1.502
		c-0.052,0.19-0.086,0.449-0.086,0.726v5.096h-1.468V63.587z"/>
	<path fill="#FFFFFF" d="M89.192,69.719v-7.237H88.07v-1.123h1.123v-0.432c0-1.088,0.242-2.125,0.898-2.798
		c0.553-0.553,1.295-0.761,1.935-0.761c0.518,0,0.932,0.104,1.227,0.242l-0.209,1.123c-0.225-0.087-0.5-0.173-0.914-0.173
		c-1.175,0-1.486,1.105-1.486,2.332v0.466h1.882v1.123h-1.882v7.237H89.192z"/>
	<path fill="#FFFFFF" d="M100.161,67.439c0,0.881,0.035,1.624,0.068,2.28h-1.277l-0.086-1.227h-0.035
		c-0.346,0.604-1.158,1.399-2.471,1.399c-1.363,0-2.625-0.847-2.625-3.523v-5.01h1.451v4.768c0,1.503,0.414,2.557,1.641,2.557
		c0.951,0,1.555-0.726,1.762-1.313c0.07-0.225,0.121-0.484,0.121-0.777v-5.234h1.451V67.439z M95.479,59.891
		c-0.465,0-0.811-0.38-0.811-0.847c0-0.466,0.361-0.847,0.846-0.847c0.449,0,0.795,0.363,0.795,0.847
		c0,0.467-0.328,0.847-0.813,0.847H95.479z M98.52,59.891c-0.467,0-0.813-0.38-0.813-0.847c0-0.466,0.363-0.847,0.846-0.847
		c0.467,0,0.813,0.363,0.813,0.847c0,0.467-0.346,0.847-0.813,0.847H98.52z"/>
	<path fill="#FFFFFF" d="M102.543,63.83c0-0.898-0.033-1.728-0.068-2.471h1.295l0.053,1.537h0.051c0.363-1.019,1.209-1.71,2.16-1.71
		c0.137,0,0.258,0.018,0.379,0.035v1.416c-0.137-0.034-0.275-0.034-0.449-0.034c-1.002,0-1.727,0.794-1.898,1.883
		c-0.053,0.207-0.07,0.466-0.07,0.726v4.508h-1.451V63.83z"/>
	<path fill="#FFFFFF" d="M113.081,66.109l-1.07,3.61h-1.486l3.576-11.642h1.709l3.559,11.642h-1.52l-1.105-3.61H113.081z
		 M113.444,57.3c-0.467,0-0.795-0.38-0.795-0.847c0-0.483,0.346-0.863,0.811-0.863c0.484,0,0.813,0.38,0.813,0.863
		c0,0.467-0.328,0.847-0.813,0.847H113.444z M116.465,64.969l-0.984-3.23c-0.225-0.777-0.396-1.554-0.553-2.279h-0.051
		c-0.156,0.726-0.328,1.537-0.537,2.263l-1,3.247H116.465z M116.518,57.3c-0.467,0-0.795-0.38-0.795-0.847
		c0-0.483,0.363-0.863,0.828-0.863c0.467,0,0.795,0.38,0.795,0.863c0,0.467-0.311,0.847-0.811,0.847H116.518z"/>
	<path fill="#FFFFFF" d="M120.973,63.83c0-0.898-0.033-1.728-0.068-2.471h1.295l0.053,1.537h0.051c0.363-1.019,1.209-1.71,2.16-1.71
		c0.137,0,0.258,0.018,0.379,0.035v1.416c-0.137-0.034-0.275-0.034-0.449-0.034c-1.002,0-1.727,0.794-1.898,1.883
		c-0.053,0.207-0.07,0.466-0.07,0.726v4.508h-1.451V63.83z"/>
	<path fill="#FFFFFF" d="M125.413,68.856l3.42-4.992c0.328-0.449,0.656-0.863,0.984-1.278v-0.034h-4.076v-1.192h5.803v0.933
		l-3.402,4.923c-0.328,0.449-0.639,0.881-0.949,1.278v0.052h4.387v1.175h-6.166V68.856z"/>
	<path fill="#FFFFFF" d="M134.877,59.373v1.986h2.004v1.123h-2.004v4.629c0,1.054,0.311,1.555,1.055,1.555
		c0.346,0,0.568-0.034,0.777-0.086l0.068,1.105c-0.277,0.12-0.691,0.189-1.244,0.189c-0.639,0-1.191-0.207-1.537-0.604
		c-0.396-0.432-0.57-1.123-0.57-2.142v-4.646h-1.209v-1.123h1.209v-1.503L134.877,59.373z"/>
	<path fill="#FFFFFF" d="M139.35,65.764c0.035,2.211,1.244,2.971,2.592,2.971c0.932,0,1.555-0.19,2.037-0.397l0.26,1.054
		c-0.518,0.242-1.381,0.483-2.504,0.483c-2.402,0-3.801-1.692-3.801-4.215c0-2.573,1.398-4.474,3.609-4.474
		c2.42,0,3.109,2.211,3.109,3.853c0,0.328-0.018,0.553-0.033,0.726H139.35z M143.254,64.71c0.018-1.175-0.467-2.453-1.848-2.453
		c-1.348,0-1.936,1.364-2.039,2.453H143.254z"/>
</g>
</svg>
