<svg xmlns="http://www.w3.org/2000/svg" viewBox="0 0 512 512"><path d="M0 256v256h512V0H0v256zM319.1 21c22.2 2.3 42 7.6 59.5 15.9 35.7 17 54.8 43.9 58.5 82.1 1.1 11.3.7 19.5-1.7 36-4 27-13.8 46.5-32 64-17.3 16.6-35.3 25.3-59.8 28.9-12.2 1.9-12.5 2.3-2.1 3.6 10 1.3 21.2 4.7 31.4 9.7 8.9 4.3 11.6 6.2 18.5 13.2 9.3 9.3 14.1 17.5 18.2 31.1 2.6 8.4 2.8 10.2 2.8 28 0 16.1-.3 20.6-2.3 29.5-3 14.3-7.2 26.4-13.6 39.7-20.5 42.9-58.9 72.9-107.5 84.2-20.9 4.9-26.3 5.1-126.3 5.1H68.8l.5-2.3c.3-1.2 17.1-107.4 37.3-236L143.4 20h82.7c50.4 0 86.7.4 93 1z"/><path d="M255.6 123.2c-.5 1.5-12.7 77.9-12.6 79 0 .5 3.9.8 8.8.8 28.2-.1 48.8-13.7 54.3-36 2.1-8.8 1.8-21.6-.7-27-3.9-8.5-12.4-14.4-24.2-16.9-7.5-1.6-25.2-1.5-25.6.1zM227.6 300.1c-.3.8-3.5 20.3-7.1 43.4-3.6 23.1-6.8 43-7 44.2-.5 2.3-.5 2.3 11.3 2.3 7.2 0 14.1-.6 17.7-1.5 24.3-6.2 41.8-28.2 41.8-52.5.1-9.9-2.3-16.7-8-23-7.7-8.6-18-12.3-37.6-13.6-8.7-.6-10.7-.4-11.1.7z"/></svg>
