<svg viewBox="4944 3186 29 24" xmlns="http://www.w3.org/2000/svg"><path d="m9.123 24.2c10.943 0 16.923-9.236 16.923-17.244 0-.265-.007-.523-.014-.78a12.153 12.153 0 0 0 2.968-3.135 11.626 11.626 0 0 1-3.416.959 6.036 6.036 0 0 0  2.616-3.358 11.821 11.821 0 0 1-3.778 1.472 5.885 5.885 0 0 0-4.342-1.914 6.01 6.01 0 0 0-5.952 6.064 6.245 6.245 0 0 0  .152 1.384 16.9 16.9 0 0 1-12.265-6.348 6.136 6.136 0 0 0  1.842 8.1 5.787 5.787 0 0 1-2.694-.758v.081a6.03 6.03 0 0 0 4.774 5.939 5.8 5.8 0 0 1-1.567.213 5.611 5.611 0 0 1-1.12-.11 5.977 5.977 0 0 0  5.55 4.202 11.8 11.8 0 0 1-7.389 2.6 12.834 12.834 0 0 1-1.411-.083 16.713 16.713 0 0 0  9.123 2.716" fill="#ffffff" transform="translate(4944 3185.8)"/></svg>
